<svg xmlns="http://www.w3.org/2000/svg" viewBox="0 0 370 370"><title>step1</title><g style="opacity:0.30000000000000004"><rect x="139.48" y="35" width="89.09" height="19.86" rx="9.93" ry="9.93" style="fill:#999"/><path d="M224.13,180.81a6.2,6.2,0,0,1-6.2-6.21h0a12.27,12.27,0,0,0-12.27-12.28H182.79a6.43,6.43,0,0,1,0-12.85h86a10.15,10.15,0,0,0,0-20.29H158.93a3.34,3.34,0,0,1,0-6.67H177.2a10,10,0,0,0,10-10,9.28,9.28,0,0,1,9.28-9.29h26.76a9.64,9.64,0,0,0,0-19.27H212.41A12.44,12.44,0,0,1,200,71.53a9.63,9.63,0,0,0-9.62-9.63H1.57a9.12,9.12,0,0,0,0,18.23H29.39a10.53,10.53,0,0,1,0,21.06H-16A9.76,9.76,0,0,0-25.76,111,9.76,9.76,0,0,0-16,120.71H18.62a10.53,10.53,0,0,1,0,21.06H-55a9.76,9.76,0,0,0-9.75,9.76A9.76,9.76,0,0,0-55,161.29H10.41a10,10,0,0,1,10,10h0a10,10,0,0,1-10,10H6.82a10,10,0,0,0,0,20h3.59a11,11,0,0,1,0,22.09H8.1a9.25,9.25,0,0,0,0,18.49H195.87a11.3,11.3,0,0,0,0-22.6h-7.7a10.27,10.27,0,0,1,0-20.54h35.14a9,9,0,0,0,9-9V189A8.16,8.16,0,0,0,224.13,180.81Z" transform="translate(66.4 2.13)" style="fill:#999"/><rect x="145.13" y="251.89" width="89.09" height="19.86" rx="9.93" ry="9.93" style="fill:#999"/><ellipse cx="127.47" cy="262.04" rx="10.13" ry="10.14" style="fill:#999"/><ellipse cx="311.13" cy="93.56" rx="10.13" ry="10.14" style="fill:#999"/><ellipse cx="359.87" cy="141.33" rx="10.13" ry="10.14" style="fill:#999"/><path d="M283.68,161.54H244.35a10.53,10.53,0,0,0,0,21.06h39.33a10.53,10.53,0,0,0,0-21.06Z" transform="translate(66.4 2.13)" style="fill:#999"/></g><rect x="0.95" y="201.89" width="190.43" height="96.29" style="fill:#f47a54"/><path d="M125.94,297H-66.4V198.81H125.94Zm-190.43-1.9H124V200.72H-64.49Z" transform="translate(66.4 2.13)" style="fill:#222f39"/><line x1="0.95" y1="226.32" x2="192.45" y2="226.32" style="fill:#f47a54"/><rect x="0.95" y="225.37" width="191.5" height="1.91" style="fill:#222f39"/><rect x="97.97" y="237.01" width="83.79" height="39.67" rx="4.74" ry="4.74" style="fill:#fff"/><path d="M110.85,275.51H36.09A5.47,5.47,0,0,1,30.62,270V239.41a5.48,5.48,0,0,1,5.47-5.48h74.76a5.48,5.48,0,0,1,5.46,5.48V270A5.47,5.47,0,0,1,110.85,275.51ZM36.09,235.84a3.56,3.56,0,0,0-3.56,3.57V270a3.56,3.56,0,0,0,3.56,3.57h74.76a3.57,3.57,0,0,0,3.56-3.57V239.41a3.57,3.57,0,0,0-3.56-3.57Z" transform="translate(66.4 2.13)" style="fill:#222f39"/><rect x="97.97" y="249.41" width="83.79" height="39.67" style="fill:#f47a54"/><path d="M116.31,287.91H30.62V246.33h85.69ZM32.53,286h81.88V248.23H32.53Z" transform="translate(66.4 2.13)" style="fill:#222f39"/><rect x="11.39" y="209.16" width="170.37" height="17.16" style="fill:#fff"/><path d="M116.31,225.15H-56V206.08H116.31Zm-170.37-1.91H114.41V208H-54.06Z" transform="translate(66.4 2.13)" style="fill:#222f39"/><rect x="10.37" y="138.85" width="77.85" height="140.63" style="fill:#92deeb"/><path d="M22.78,278.3H-57V135.77H22.78Zm-77.85-1.91h76V137.67H-55.07Z" transform="translate(66.4 2.13)" style="fill:#222f39"/><path d="M2.69,269.86H-35.16v-1.57a12.64,12.64,0,0,0-12.39-12.6l-3.17-.05V171.85h1.9v81.91l1.3,0A14.57,14.57,0,0,1-33.26,268H.79a14.42,14.42,0,0,1,13.83-14.12V162.32h1.9v93.42H15.17A12.5,12.5,0,0,0,2.69,268.24Z" transform="translate(66.4 2.13)" style="fill:#222f39"/><rect x="10.37" y="277.8" width="77.85" height="11.28" style="fill:#f47a54"/><path d="M22.78,287.91H-57V274.72H22.78ZM-55.07,286h76v-9.37H-55.07Z" transform="translate(66.4 2.13)" style="fill:#222f39"/><path d="M16.52,249.84h-1.9V158.4l-1.29,0A14.56,14.56,0,0,1-.93,144.21H-35a14.32,14.32,0,0,1-4.23,9.92,14.26,14.26,0,0,1-9.61,4.19v91.52h-1.9V156.42h1.35a12.38,12.38,0,0,0,8.81-3.65,12.43,12.43,0,0,0,3.68-8.86V142.3H1v1.57a12.63,12.63,0,0,0,12.39,12.6l3.16.05Z" transform="translate(66.4 2.13)" style="fill:#222f39"/><rect x="208.97" y="143.58" width="137.11" height="154.76" style="fill:#92deeb"/><path d="M280.63,297.17h-139V140.5h139Zm-137.11-1.91h135.2V142.41H143.52Z" transform="translate(66.4 2.13)" style="fill:#222f39"/><rect x="137.94" y="262.07" width="106.4" height="71.98" rx="7.42" ry="7.42" style="fill:#fdca5b"/><path d="M170.88,332.87H78.61a8,8,0,0,1-8-8V267a8,8,0,0,1,8-8h92.27a8,8,0,0,1,8,8v57.82A8,8,0,0,1,170.88,332.87Zm-92.27-72A6.12,6.12,0,0,0,72.5,267v57.82A6.13,6.13,0,0,0,78.61,331h92.27a6.13,6.13,0,0,0,6.11-6.13V267a6.12,6.12,0,0,0-6.11-6.12Z" transform="translate(66.4 2.13)" style="fill:#222f39"/><rect x="137.94" y="273.14" width="106.4" height="15.94" style="fill:#f47a54"/><path d="M178.9,287.91H70.59V270.06H178.9ZM72.5,286H177V272H72.5Z" transform="translate(66.4 2.13)" style="fill:#222f39"/><rect x="148.62" y="300.08" width="85.52" height="9.33" style="fill:#fff"/><path d="M168.69,308.24H81.27V297h87.42Zm-85.51-1.91h83.61v-7.42H83.18Z" transform="translate(66.4 2.13)" style="fill:#222f39"/><ellipse cx="49.3" cy="209.16" rx="23.17" ry="23.2" style="fill:#60cdd8"/><path d="M-17.1,231.18A24.16,24.16,0,0,1-41.22,207,24.17,24.17,0,0,1-17.1,182.88,24.17,24.17,0,0,1,7,207,24.16,24.16,0,0,1-17.1,231.18Zm0-46.39A22.25,22.25,0,0,0-39.31,207,22.25,22.25,0,0,0-17.1,229.28,22.26,22.26,0,0,0,5.12,207,22.26,22.26,0,0,0-17.1,184.79Z" transform="translate(66.4 2.13)" style="fill:#222f39"/><line x1="150.89" y1="320.22" x2="169.04" y2="320.22" style="fill:#60cdd8"/><path d="M102.64,319.05H84.49a1,1,0,1,1,0-1.91h18.15a1,1,0,0,1,0,1.91Z" transform="translate(66.4 2.13)" style="fill:#222f39"/><line x1="171.83" y1="320.22" x2="189.98" y2="320.22" style="fill:#60cdd8"/><path d="M123.58,319.05H105.43a1,1,0,0,1,0-1.91h18.15a1,1,0,1,1,0,1.91Z" transform="translate(66.4 2.13)" style="fill:#222f39"/><line x1="192.78" y1="320.22" x2="210.93" y2="320.22" style="fill:#60cdd8"/><path d="M144.53,319.05H126.38a1,1,0,0,1,0-1.91h18.15a1,1,0,0,1,0,1.91Z" transform="translate(66.4 2.13)" style="fill:#222f39"/><line x1="213.73" y1="320.22" x2="231.88" y2="320.22" style="fill:#60cdd8"/><path d="M165.48,319.05H147.33a1,1,0,0,1,0-1.91h18.15a1,1,0,0,1,0,1.91Z" transform="translate(66.4 2.13)" style="fill:#222f39"/><line x1="230.93" y1="304.75" x2="214.35" y2="304.75" style="fill:#fff"/><path d="M164.53,303.58H148a1,1,0,0,1,0-1.91h16.58a1,1,0,0,1,0,1.91Z" transform="translate(66.4 2.13)" style="fill:#222f39"/><line x1="211.88" y1="304.75" x2="202.93" y2="304.75" style="fill:#fff"/><path d="M145.48,303.58h-8.95a1,1,0,0,1,0-1.91h8.95a1,1,0,1,1,0,1.91Z" transform="translate(66.4 2.13)" style="fill:#222f39"/><line x1="200.46" y1="304.75" x2="195.31" y2="304.75" style="fill:#fff"/><path d="M134.06,303.58h-5.15a1,1,0,0,1,0-1.91h5.15a1,1,0,0,1,0,1.91Z" transform="translate(66.4 2.13)" style="fill:#222f39"/><path d="M-1,205.8h-4v-1.26a6.7,6.7,0,0,0-6.69-6.69,6.71,6.71,0,0,0-6.66,6.69v5a4.21,4.21,0,0,1-4.2,4.21,4.21,4.21,0,0,1-4.2-4.21v-8.92a1.23,1.23,0,0,0-1.24-1.24,1.24,1.24,0,0,0-1.24,1.24v5.2h-4A1.25,1.25,0,0,0-34.45,207a1.25,1.25,0,0,0,1.25,1.25h4v1.25a6.69,6.69,0,0,0,6.68,6.69,6.69,6.69,0,0,0,6.68-6.69v-5a4.21,4.21,0,0,1,4.2-4.2,4.21,4.21,0,0,1,4.2,4.2v8.77a1.24,1.24,0,0,0,1.24,1.24,1.23,1.23,0,0,0,1.24-1.24v-5h4A1.25,1.25,0,0,0,.25,207,1.25,1.25,0,0,0-1,205.8Z" transform="translate(66.4 2.13)" style="fill:#222f39"/><ellipse cx="139.67" cy="166.94" rx="21.42" ry="21.45" style="fill:#fdca5b"/><path d="M73.27,187.21a22.4,22.4,0,1,1,22.38-22.4A22.42,22.42,0,0,1,73.27,187.21Zm0-42.9a20.5,20.5,0,1,0,20.47,20.5A20.51,20.51,0,0,0,73.27,144.31Z" transform="translate(66.4 2.13)" style="fill:#222f39"/><ellipse cx="139.74" cy="167.01" rx="15.23" ry="15.25" style="fill:#fdca5b"/><path d="M73.34,181.09a16.21,16.21,0,1,1,16.19-16.21A16.22,16.22,0,0,1,73.34,181.09Zm0-30.51a14.3,14.3,0,1,0,14.28,14.3A14.3,14.3,0,0,0,73.34,150.58Z" transform="translate(66.4 2.13)" style="fill:#222f39"/><path d="M76.87,163.37a3.83,3.83,0,0,0-2.61-6.64H74V155.5a.79.79,0,1,0-1.58,0v1.23H71v-2.25a.8.8,0,0,0-1.59,0v2.25H67.67a.8.8,0,0,0,0,1.59h.18v13.12h-.18a.8.8,0,0,0,0,1.59h1.74v2.25a.8.8,0,0,0,1.59,0V173h1.42v1.24a.79.79,0,0,0,1.58,0V173h.56a5.11,5.11,0,0,0,2.31-9.66Zm-2.61-5.05a2.25,2.25,0,0,1,0,4.5H69.43v-4.5Zm.3,13.12H69.43v-7h5.13a3.52,3.52,0,0,1,0,7Z" transform="translate(66.4 2.13)" style="fill:#222f39"/><path d="M242.39,162.19a1,1,0,0,1-.95-1V129.89a32.26,32.26,0,1,0-64.51,0v31.34a1,1,0,1,1-1.9,0V129.89a34.16,34.16,0,1,1,68.32,0v31.34A1,1,0,0,1,242.39,162.19Z" transform="translate(66.4 2.13)" style="fill:#222f39"/><path d="M175.74,168.86a7.63,7.63,0,1,1,7.62-7.63A7.62,7.62,0,0,1,175.74,168.86Zm0-13.35a5.72,5.72,0,1,0,5.72,5.72A5.72,5.72,0,0,0,175.74,155.51Z" transform="translate(66.4 2.13)" style="fill:#222f39"/><ellipse cx="219.97" cy="181.63" rx="25.79" ry="25.82" style="fill:#fdca5b"/><path d="M153.57,206.28a26.77,26.77,0,1,1,26.74-26.77A26.78,26.78,0,0,1,153.57,206.28Zm0-51.64a24.87,24.87,0,1,0,24.83,24.87A24.88,24.88,0,0,0,153.57,154.64Z" transform="translate(66.4 2.13)" style="fill:#222f39"/><ellipse cx="220.05" cy="181.72" rx="18.34" ry="18.36" style="fill:#fdca5b"/><path d="M153.65,198.91a19.32,19.32,0,1,1,19.29-19.32A19.33,19.33,0,0,1,153.65,198.91Zm0-36.72A17.41,17.41,0,1,0,171,179.59,17.4,17.4,0,0,0,153.65,162.19Z" transform="translate(66.4 2.13)" style="fill:#222f39"/><path d="M157.9,177.78a4.61,4.61,0,0,0-3.14-8h-.31V168.3a1,1,0,1,0-1.91,0v1.49h-1.71v-2.71a1,1,0,1,0-1.9,0v2.71h-2.1a1,1,0,1,0,0,1.9H147v15.8h-.21a1,1,0,1,0,0,1.91h2.1v2.71a1,1,0,0,0,1.9,0V189.4h1.71v1.49a1,1,0,0,0,1.91,0V189.4h.67a6.14,6.14,0,0,0,2.78-11.62Zm-3.14-6.09a2.71,2.71,0,0,1,0,5.42h-5.82v-5.42Zm.36,15.8h-6.18V179h6.18a4.24,4.24,0,1,1,0,8.47Z" transform="translate(66.4 2.13)" style="fill:#222f39"/><path d="M242.39,168.86a7.63,7.63,0,1,1,7.62-7.63A7.62,7.62,0,0,1,242.39,168.86Zm0-13.35a5.72,5.72,0,1,0,5.72,5.72A5.72,5.72,0,0,0,242.39,155.51Z" transform="translate(66.4 2.13)" style="fill:#222f39"/><path d="M237.93,206.07c-9.69-12.59-28.74-5.16-28.74,7.62,0-12.78-19.06-20.21-28.74-7.62-10,13-.14,35.8,28.74,48.9C238.07,241.87,247.93,219.08,237.93,206.07Z" transform="translate(66.4 2.13)" style="fill:#f47a54"/><path d="M209.19,256l-.39-.18c-17.13-7.76-29.22-19.85-32.33-32.33-1.68-6.73-.53-13.12,3.23-18a17,17,0,0,1,19.45-5.9,16.16,16.16,0,0,1,10,9.1,16.13,16.13,0,0,1,10-9.1,17,17,0,0,1,19.45,5.9h0c3.76,4.89,4.91,11.28,3.23,18-3.11,12.48-15.2,24.57-32.33,32.33Zm-15.87-55.48a14.93,14.93,0,0,0-12.11,6.12c-3.45,4.48-4.45,10.15-2.89,16.39,2.94,11.83,14.47,23.35,30.87,30.88,16.4-7.53,27.92-19,30.87-30.88,1.56-6.24.56-11.91-2.89-16.39h0a15.16,15.16,0,0,0-17.32-5.25c-5.9,2-9.71,6.83-9.71,12.29h-1.9c0-5.46-3.81-10.28-9.71-12.29A16.17,16.17,0,0,0,193.32,200.53Z" transform="translate(66.4 2.13)" style="fill:#222f39"/><rect width="370" height="370" style="fill:none"/></svg>