<svg xmlns="http://www.w3.org/2000/svg" viewBox="0 0 370 370"><title>step4</title><g style="opacity:0.30000000000000004"><rect x="138.6" y="26.31" width="89.21" height="19.86" rx="9.93" ry="9.93" style="fill:#999"/><path d="M-391,279.16a6.21,6.21,0,0,1-6.21-6.21h0a12.28,12.28,0,0,0-12.28-12.28h-22.9a6.42,6.42,0,0,1-6.42-6.42,6.41,6.41,0,0,1,6.42-6.42h86.16a10.15,10.15,0,0,0,10.15-10.15,10.14,10.14,0,0,0-10.15-10.14h-110a3.35,3.35,0,0,1-3.34-3.34,3.34,3.34,0,0,1,3.34-3.34H-438a10,10,0,0,0,10-10,9.3,9.3,0,0,1,9.3-9.3h26.79a9.63,9.63,0,0,0,9.63-9.63,9.64,9.64,0,0,0-9.63-9.64h-10.79a12.45,12.45,0,0,1-12.46-12.45,9.63,9.63,0,0,0-9.63-9.63h-189a9.12,9.12,0,0,0-9.12,8.86,9.12,9.12,0,0,0,9.12,9.37H-586A10.53,10.53,0,0,1-575.45,189,10.52,10.52,0,0,1-586,199.54h-45.46a9.76,9.76,0,0,0-9.76,9.76,9.76,9.76,0,0,0,9.76,9.76h34.67a10.53,10.53,0,0,1,10.53,10.53,10.52,10.52,0,0,1-10.53,10.53h-73.71a9.76,9.76,0,0,0-9.76,9.76,9.76,9.76,0,0,0,9.76,9.76H-605a10,10,0,0,1,10,10h0a10,10,0,0,1-10,10h-3.6a10,10,0,0,0-10,10,10,10,0,0,0,10,10h3.6a11,11,0,0,1,11,11,11,11,0,0,1-11,11h-2.32a9.25,9.25,0,0,0-9.24,9.25,9.25,9.25,0,0,0,9.24,9.25h188A11.3,11.3,0,0,0-408,329a11.29,11.29,0,0,0-11.3-11.3H-427a10.27,10.27,0,0,1-10.27-10.27A10.27,10.27,0,0,1-427,297.14h35.19a9,9,0,0,0,9-9v-.82A8.17,8.17,0,0,0-391,279.16Z" transform="translate(680.83 -104.92)" style="fill:#999"/><rect x="144.25" y="243.2" width="89.21" height="19.86" rx="9.93" ry="9.93" style="fill:#999"/><circle cx="-554.26" cy="358.26" r="10.14" transform="translate(265.16 -391.91) rotate(-45)" style="fill:#999"/><circle cx="-370.37" cy="189.78" r="10.14" transform="translate(438.16 -311.22) rotate(-45)" style="fill:#999"/><circle cx="-321.57" cy="237.55" r="10.14" transform="translate(617.65 -172.45) rotate(-13.28)" style="fill:#999"/><path d="M-331.37,259.89h-39.39a10.55,10.55,0,0,0-10.52,10.53A10.55,10.55,0,0,0-370.76,281h39.39a10.56,10.56,0,0,0,10.53-10.53A10.56,10.56,0,0,0-331.37,259.89Z" transform="translate(680.83 -104.92)" style="fill:#999"/></g><line x1="183.76" y1="122.2" x2="183.76" y2="239.95" style="fill:#fdca5b"/><rect x="182.76" y="122.19" width="2" height="117.75" style="fill:#222f39"/><polygon points="149.39 312.69 219.14 312.69 229.14 255.69 138.39 255.69 149.39 312.69" style="fill:#fdca5b"/><path d="M-460.85,418.61h-71.42l-11.38-59h93.15Zm-69.77-2h68.09l9.65-55h-88.35Z" transform="translate(680.83 -104.92)" style="fill:#222f39"/><rect x="129.85" y="233.03" width="107.83" height="26.5" style="fill:#fdca5b"/><path d="M-442.15,365.45H-552V337h109.83Zm-107.83-2h105.83V339H-550Z" transform="translate(680.83 -104.92)" style="fill:#222f39"/><circle cx="183.76" cy="93.52" r="35.6" style="fill:#fdca5b"/><path d="M-497.07,235a36.64,36.64,0,0,1-36.6-36.6,36.64,36.64,0,0,1,36.6-36.6,36.64,36.64,0,0,1,36.6,36.6A36.64,36.64,0,0,1-497.07,235Zm0-71.2a34.64,34.64,0,0,0-34.6,34.6,34.64,34.64,0,0,0,34.6,34.6,34.64,34.64,0,0,0,34.6-34.6A34.64,34.64,0,0,0-497.07,163.84Z" transform="translate(680.83 -104.92)" style="fill:#222f39"/><circle cx="183.88" cy="93.64" r="25.32" style="fill:#fdca5b"/><path d="M-496.95,224.87a26.34,26.34,0,0,1-26.32-26.31,26.35,26.35,0,0,1,26.32-26.32,26.35,26.35,0,0,1,26.32,26.32A26.34,26.34,0,0,1-496.95,224.87Zm0-50.63a24.35,24.35,0,0,0-24.32,24.32,24.35,24.35,0,0,0,24.32,24.31,24.35,24.35,0,0,0,24.32-24.31A24.35,24.35,0,0,0-496.95,174.24Z" transform="translate(680.83 -104.92)" style="fill:#222f39"/><path d="M-487.4,308.28s-2.17-21.54,17.08-30c20.46-9,36.84,5,36.84,5s0,19.34-16.67,28.84C-471.87,324.49-487.4,308.28-487.4,308.28Z" transform="translate(680.83 -104.92)" style="fill:#92deeb"/><path d="M-466.45,317.74A32.48,32.48,0,0,1-488.12,309l-.24-.24,0-.35c0-.22-2-22.36,17.67-31,20.79-9.14,37.72,5,37.89,5.15l.35.3v.46c0,.2-.2,20-17.18,29.7A33.49,33.49,0,0,1-466.45,317.74Zm-20-9.9c2.1,2,16.24,14.55,35.78,3.41,14.56-8.3,16-24.53,16.15-27.5-2.5-1.92-17.44-12.45-35.41-4.55C-487,286.7-486.59,305.09-486.43,307.84Z" transform="translate(680.83 -104.92)" style="fill:#222f39"/><line x1="183.76" y1="208.03" x2="225.01" y2="188.2" style="fill:#92deeb"/><rect x="-499.33" y="302.03" width="45.77" height="2" transform="translate(502.59 -281.37) rotate(-25.66)" style="fill:#222f39"/><path d="M-507.31,318.93s2.47-24.57-19.49-34.22c-23.34-10.26-42,5.7-42,5.7s0,22,19,32.89C-525,337.42-507.31,318.93-507.31,318.93Z" transform="translate(680.83 -104.92)" style="fill:#92deeb"/><path d="M-531.21,329.58a38.18,38.18,0,0,1-19.09-5.41c-19.29-11-19.52-33.53-19.52-33.76V290l.35-.3c.19-.16,19.43-16.25,43.07-5.86,22.37,9.83,20.11,35,20.08,35.24l0,.34-.24.25A36.92,36.92,0,0,1-531.21,329.58Zm-36.59-38.7c.15,3.2,1.73,22,18.49,31.55,22.27,12.7,38.83-1.86,41-3.95.17-3,.7-24.24-18.92-32.86C-547.95,276.5-565.11,288.79-567.8,290.88Z" transform="translate(680.83 -104.92)" style="fill:#222f39"/><line x1="184.55" y1="219.33" x2="137.49" y2="196.71" style="fill:#92deeb"/><rect x="-520.81" y="286.83" width="2" height="52.21" transform="translate(104.23 -396.06) rotate(-64.32)" style="fill:#222f39"/><path d="M-490.6,265.24s-5.46-12.86,4.79-21.76c10.88-9.46,23.65-4,23.65-4s3.7,11.92-4.75,21C-477.93,272.25-490.6,265.24-490.6,265.24Z" transform="translate(680.83 -104.92)" style="fill:#92deeb"/><path d="M-481.7,268.31c-.43,0-.85,0-1.25,0a20.62,20.62,0,0,1-8.13-2.16l-.31-.17-.13-.31c-.06-.14-5.62-13.64,5-22.91,11.23-9.75,24.57-4.18,24.71-4.13l.42.19.14.44c.16.51,3.77,12.57-5,21.93C-471.59,266.94-477.41,268.31-481.7,268.31Zm-8.11-3.79c2,1,12.64,5.46,22.17-4.73,7.06-7.56,5.19-17.34,4.65-19.53-2.31-.85-12.88-4.09-22.17,4C-494,251.87-490.57,262.49-489.81,264.52Z" transform="translate(680.83 -104.92)" style="fill:#222f39"/><line x1="183.76" y1="165.76" x2="206.79" y2="144.93" style="fill:#92deeb"/><rect x="-501.08" y="259.26" width="31.05" height="2" transform="translate(380.61 -363.45) rotate(-42.15)" style="fill:#222f39"/><path d="M-504.62,278s6.43-15.16-5.64-25.64c-12.83-11.14-27.87-4.67-27.87-4.67s-4.36,14,5.6,24.69C-519.55,286.3-504.62,278-504.62,278Z" transform="translate(680.83 -104.92)" style="fill:#92deeb"/><path d="M-515.17,281.44c-5.36,0-12-1.78-18.09-8.34-10.24-11-6-25.07-5.83-25.67l.14-.44.42-.18c.16-.07,15.78-6.58,28.93,4.84,12.47,10.83,6,26.62,5.9,26.78l-.13.31-.3.17A25.17,25.17,0,0,1-515.17,281.44Zm-22.13-33c-.61,2.44-3,14.22,5.5,23.26,11.3,12.09,24.25,6.61,26.39,5.57.86-2.26,5-15-5.5-24.15C-521.9,243.61-534.78,247.57-537.3,248.48Z" transform="translate(680.83 -104.92)" style="fill:#222f39"/><line x1="183.83" y1="179.53" x2="156.7" y2="154.98" style="fill:#92deeb"/><rect x="-511.57" y="253.88" width="2" height="36.59" transform="translate(310.95 -393.96) rotate(-47.87)" style="fill:#222f39"/><polygon points="276.79 136.35 276.48 134.6 275.48 131.85 273.79 129.41 271.79 127.66 269.1 125.99 266.1 124.85 261.73 124.85 258.35 125.99 254.6 128.66 252.04 132.41 249.04 132.1 246.16 133.22 244.22 135.03 243.66 138.47 243.29 140.78 241.22 142.66 239.79 145.28 239.04 149.72 240.3 153.41 242.6 156.6 246.04 158.85 277.04 158.85 280.98 157.1 283.91 154.22 285.6 150.5 286.23 147.1 285.41 143.47 283.41 139.97 280.66 137.41 276.79 136.35" style="fill:#fff"/><polygon points="119.5 104.41 119 100.49 118.33 96.41 116.25 92.49 113.41 89.33 109.41 86.49 104.58 84.91 98.25 84.49 93.5 86.08 88.58 88.58 85.08 93.52 82.75 98.58 81.41 100.49 75.66 100.99 70.16 104.41 66.48 109.58 65.58 114.66 65.58 120.2 68.5 125.41 73 129.66 79.75 131.58 121.25 131.58 126.58 130.35 130.75 127.08 133.41 122.16 134.58 117.49 133.02 112.49 131.08 108.03 125.16 104.74 119.5 104.41" style="fill:#fff"/><path d="M-432.73,264.87l27.63,0a12.26,12.26,0,0,0,11.24-12.31,12.46,12.46,0,0,0-9-12l-.16,0,0-.16a14,14,0,0,0-13.88-11.71,14.12,14.12,0,0,0-12.2,7.05l-.09.16-.18,0a7.31,7.31,0,0,0-1.45-.13,7.59,7.59,0,0,0-7.59,7.59,7.5,7.5,0,0,0,.16,1.58l0,.16-.13.09a10.66,10.66,0,0,0-4.39,8.59C-442.79,259.46-438.18,264.57-432.73,264.87Zm-3.65-18.39a1.1,1.1,0,0,0,.49-1.36,5.17,5.17,0,0,1-.32-1.83,5.35,5.35,0,0,1,5.34-5.34,5.3,5.3,0,0,1,1.83.32,1.12,1.12,0,0,0,1.41-.58,11.85,11.85,0,0,1,10.7-6.78,11.76,11.76,0,0,1,11.76,10.67,1.12,1.12,0,0,0,.94,1,10.1,10.1,0,0,1,8.14,10,10.17,10.17,0,0,1-9.11,10.07h-27.45c-4.27-.26-7.89-4.33-7.89-8.9A8.4,8.4,0,0,1-436.38,246.48Z" transform="translate(680.83 -104.92)" style="fill:#222f39"/><path d="M-559.94,207.83h-.24v-.24a20,20,0,0,0-20-19.67,19.92,19.92,0,0,0-13.16,5,20,20,0,0,0-6.34,10.88l0,.2h-.39a16.87,16.87,0,0,0-16.86,16.86,16.87,16.87,0,0,0,16.86,16.86h39.91a15,15,0,0,0,14.93-14.93A15,15,0,0,0-559.94,207.83Zm-.22,27.27h-39.91a14.29,14.29,0,0,1-14.28-14.28,14.29,14.29,0,0,1,14.28-14.28c.42,0,.86,0,1.35.06a1.27,1.27,0,0,0,1.4-1.11,17.36,17.36,0,0,1,5.73-10.67,17.34,17.34,0,0,1,11.46-4.33,17.39,17.39,0,0,1,17.37,17.37c0,.34,0,.69,0,1.06l0,.17a1.31,1.31,0,0,0,.39,1,1.28,1.28,0,0,0,1,.36c.42,0,.84-.06,1.25-.06a12.36,12.36,0,0,1,12.35,12.34A12.36,12.36,0,0,1-560.16,235.1Z" transform="translate(680.83 -104.92)" style="fill:#222f39"/><line x1="310.99" y1="212.66" x2="310.99" y2="293.04" style="fill:#fdca5b"/><rect x="309.99" y="212.66" width="2" height="80.37" style="fill:#222f39"/><polygon points="287.53 342.69 335.13 342.69 341.96 303.79 280.02 303.79 287.53 342.69" style="fill:#f47a54"/><path d="M-344.86,448.61h-49.27l-7.9-40.9h64.35Zm-47.62-2h45.94l6.48-36.9H-399.6Z" transform="translate(680.83 -104.92)" style="fill:#222f39"/><rect x="274.19" y="288.32" width="73.6" height="18.09" style="fill:#f47a54"/><path d="M-332,412.32h-75.6V392.24H-332Zm-73.6-2H-334V394.24h-71.6Z" transform="translate(680.83 -104.92)" style="fill:#222f39"/><circle cx="310.99" cy="193.09" r="24.3" style="fill:#fdca5b"/><path d="M-369.84,323.31a25.33,25.33,0,0,1-25.3-25.3,25.33,25.33,0,0,1,25.3-25.3,25.33,25.33,0,0,1,25.3,25.3A25.33,25.33,0,0,1-369.84,323.31Zm0-48.6a23.32,23.32,0,0,0-23.3,23.3,23.32,23.32,0,0,0,23.3,23.3,23.32,23.32,0,0,0,23.3-23.3A23.32,23.32,0,0,0-369.84,274.71Z" transform="translate(680.83 -104.92)" style="fill:#222f39"/><circle cx="311.07" cy="193.17" r="17.28" style="fill:#fdca5b"/><path d="M-369.76,316.37A18.3,18.3,0,0,1-388,298.09a18.3,18.3,0,0,1,18.28-18.28,18.3,18.3,0,0,1,18.28,18.28A18.3,18.3,0,0,1-369.76,316.37Zm0-34.56A16.29,16.29,0,0,0-386,298.09a16.29,16.29,0,0,0,16.28,16.28,16.3,16.3,0,0,0,16.28-16.28A16.3,16.3,0,0,0-369.76,281.81Z" transform="translate(680.83 -104.92)" style="fill:#222f39"/><path d="M-363.24,373s-1.48-14.71,11.66-20.48c14-6.14,25.14,3.41,25.14,3.41s0,13.2-11.38,19.68C-352.64,384.05-363.24,373-363.24,373Z" transform="translate(680.83 -104.92)" style="fill:#92deeb"/><path d="M-348.94,379.76a22.63,22.63,0,0,1-15-6.08l-.23-.25,0-.34c0-.16-1.39-15.5,12.25-21.5,14.38-6.31,26.08,3.47,26.2,3.57l.35.3v.46c0,.57-.14,13.86-11.88,20.55A23.2,23.2,0,0,1-348.94,379.76Zm-13.33-7.22c1.65,1.57,11,9.55,24,2.19,9.53-5.43,10.71-16,10.85-18.34-2-1.5-11.89-8.16-23.72-3C-362.54,358.41-362.41,370.29-362.27,372.54Z" transform="translate(680.83 -104.92)" style="fill:#222f39"/><line x1="310.99" y1="271.25" x2="339.15" y2="257.71" style="fill:#92deeb"/><rect x="-371.38" y="368.4" width="31.24" height="2" transform="translate(485.75 -222.56) rotate(-25.66)" style="fill:#222f39"/><path d="M-376.83,380.25s1.68-16.77-13.31-23.36c-15.93-7-28.68,3.9-28.68,3.9s0,15,13,22.45C-388.93,392.88-376.83,380.25-376.83,380.25Z" transform="translate(680.83 -104.92)" style="fill:#92deeb"/><path d="M-393.15,387.84a26.32,26.32,0,0,1-13.18-3.73c-13.33-7.6-13.49-22.68-13.49-23.32v-.46l.35-.3c.14-.12,13.42-11.22,29.74-4,15.47,6.8,13.91,24.2,13.89,24.38l0,.34-.24.25A25.6,25.6,0,0,1-393.15,387.84Zm-24.65-26.58c.15,2.55,1.42,14.82,12.46,21.11,14.91,8.5,25.74-.85,27.54-2.56.15-2.44.4-16.23-12.74-22C-404.22,351.8-415.63,359.61-417.8,361.26Z" transform="translate(680.83 -104.92)" style="fill:#222f39"/><line x1="311.52" y1="278.97" x2="279.4" y2="263.52" style="fill:#92deeb"/><rect x="-386.37" y="358.35" width="2" height="35.64" transform="translate(123.44 -239.06) rotate(-64.32)" style="fill:#222f39"/><path d="M-365.43,343.61s-3.72-8.78,3.27-14.86c7.43-6.45,16.15-2.7,16.15-2.7s2.52,8.13-3.25,14.3A13.44,13.44,0,0,1-365.43,343.61Z" transform="translate(680.83 -104.92)" style="fill:#92deeb"/><path d="M-359.31,346a15,15,0,0,1-6.6-1.52l-.3-.17-.14-.31c0-.1-3.92-9.53,3.53-16,7.82-6.79,16.82-3,17.2-2.87l.42.18.14.44c.11.36,2.63,8.76-3.47,15.28A14.39,14.39,0,0,1-359.31,346Zm-5.32-3.11c1.56.73,8.46,3.39,14.64-3.22,4.54-4.86,3.53-11.15,3.14-12.87a14.87,14.87,0,0,0-14.66,2.71C-367.15,334.41-365.18,341.31-364.63,342.89Z" transform="translate(680.83 -104.92)" style="fill:#222f39"/><line x1="310.99" y1="242.4" x2="326.71" y2="228.18" style="fill:#92deeb"/><rect x="-372.58" y="339.21" width="21.19" height="2" transform="translate(358.92 -259.86) rotate(-42.15)" style="fill:#222f39"/><path d="M-375,352.34s4.39-10.34-3.85-17.5c-8.75-7.6-19-3.19-19-3.19s-3,9.59,3.82,16.86A15.83,15.83,0,0,0-375,352.34Z" transform="translate(680.83 -104.92)" style="fill:#92deeb"/><path d="M-382.2,355a16.8,16.8,0,0,1-12.58-5.79c-7.11-7.61-4.18-17.42-4.05-17.83l.14-.44.42-.19c.45-.19,10.95-4.57,20.08,3.36,8.69,7.54,4.16,18.53,4.11,18.64l-.13.32-.3.17A17.65,17.65,0,0,1-382.2,355ZM-397,332.4c-.45,1.92-1.78,9.55,3.71,15.43a14.91,14.91,0,0,0,17.53,3.79c.65-1.78,3.16-10.05-3.71-16C-386.76,329.29-395,331.68-397,332.4Z" transform="translate(680.83 -104.92)" style="fill:#222f39"/><line x1="311.04" y1="251.8" x2="292.52" y2="235.04" style="fill:#92deeb"/><rect x="-380.06" y="335.85" width="2" height="24.97" transform="translate(297.75 -271.37) rotate(-47.87)" style="fill:#222f39"/><line x1="60.99" y1="212.66" x2="60.99" y2="293.04" style="fill:#fdca5b"/><rect x="59.99" y="212.66" width="2" height="80.37" style="fill:#222f39"/><polygon points="37.53 342.69 85.14 342.69 91.96 303.79 30.02 303.79 37.53 342.69" style="fill:#f47a54"/><path d="M-594.86,448.61h-49.27l-7.9-40.9h64.35Zm-47.62-2h45.94l6.48-36.9H-649.6Z" transform="translate(680.83 -104.92)" style="fill:#222f39"/><rect x="24.19" y="288.32" width="73.6" height="18.09" style="fill:#f47a54"/><path d="M-582,412.32h-75.6V392.24H-582Zm-73.6-2H-584V394.24h-71.6Z" transform="translate(680.83 -104.92)" style="fill:#222f39"/><circle cx="60.99" cy="193.09" r="24.3" style="fill:#fdca5b"/><path d="M-619.84,323.31a25.33,25.33,0,0,1-25.3-25.3,25.33,25.33,0,0,1,25.3-25.3,25.33,25.33,0,0,1,25.3,25.3A25.33,25.33,0,0,1-619.84,323.31Zm0-48.6a23.32,23.32,0,0,0-23.3,23.3,23.32,23.32,0,0,0,23.3,23.3,23.32,23.32,0,0,0,23.3-23.3A23.32,23.32,0,0,0-619.84,274.71Z" transform="translate(680.83 -104.92)" style="fill:#222f39"/><circle cx="61.07" cy="193.17" r="17.28" style="fill:#fdca5b"/><path d="M-619.76,316.37A18.3,18.3,0,0,1-638,298.09a18.3,18.3,0,0,1,18.28-18.28,18.3,18.3,0,0,1,18.28,18.28A18.3,18.3,0,0,1-619.76,316.37Zm0-34.56A16.29,16.29,0,0,0-636,298.09a16.29,16.29,0,0,0,16.28,16.28,16.3,16.3,0,0,0,16.28-16.28A16.3,16.3,0,0,0-619.76,281.81Z" transform="translate(680.83 -104.92)" style="fill:#222f39"/><path d="M-615.76,296.38a4.32,4.32,0,0,0,1.38-3.17,4.35,4.35,0,0,0-4.34-4.35H-619v-1.4a.9.9,0,0,0-.9-.9.9.9,0,0,0-.9.9v1.4h-1.61v-2.55a.9.9,0,0,0-.9-.9.9.9,0,0,0-.9.9v2.55h-2a.9.9,0,0,0-.9.9.89.89,0,0,0,.9.89h.2v14.88h-.2a.89.89,0,0,0-.9.89.9.9,0,0,0,.9.9h2v2.55a.9.9,0,0,0,.9.9.9.9,0,0,0,.9-.9v-2.55h1.61v1.4a.9.9,0,0,0,.9.9.9.9,0,0,0,.9-.9v-1.4h.64a5.79,5.79,0,0,0,5.78-5.78A5.79,5.79,0,0,0-615.76,296.38Zm-3-5.73a2.56,2.56,0,0,1,2.55,2.56,2.55,2.55,0,0,1-2.55,2.55h-5.48v-5.11Zm.35,14.88h-5.83v-8h5.83a4,4,0,0,1,4,4A4,4,0,0,1-618.37,305.53Z" transform="translate(680.83 -104.92)" style="fill:#222f39"/><path d="M-613.24,373s-1.48-14.71,11.66-20.48c14-6.14,25.14,3.41,25.14,3.41s0,13.2-11.38,19.68C-602.64,384.05-613.24,373-613.24,373Z" transform="translate(680.83 -104.92)" style="fill:#92deeb"/><path d="M-598.94,379.76a22.63,22.63,0,0,1-15-6.08l-.23-.25,0-.34c0-.16-1.39-15.5,12.25-21.5,14.38-6.31,26.08,3.47,26.2,3.57l.35.3v.46c0,.57-.14,13.86-11.88,20.55A23.2,23.2,0,0,1-598.94,379.76Zm-13.33-7.22c1.65,1.57,11,9.55,24,2.19,9.53-5.43,10.71-16,10.85-18.34-2-1.5-11.89-8.16-23.72-3C-612.54,358.41-612.41,370.29-612.27,372.54Z" transform="translate(680.83 -104.92)" style="fill:#222f39"/><line x1="60.99" y1="271.25" x2="89.15" y2="257.71" style="fill:#92deeb"/><rect x="-621.38" y="368.4" width="31.24" height="2" transform="translate(461.08 -330.83) rotate(-25.66)" style="fill:#222f39"/><path d="M-626.83,380.25s1.68-16.77-13.31-23.36c-15.93-7-28.68,3.9-28.68,3.9s0,15,13,22.45C-638.93,392.88-626.83,380.25-626.83,380.25Z" transform="translate(680.83 -104.92)" style="fill:#92deeb"/><path d="M-643.15,387.84a26.32,26.32,0,0,1-13.18-3.73c-13.33-7.6-13.49-22.68-13.49-23.32v-.46l.35-.3c.14-.12,13.42-11.22,29.74-4,15.47,6.8,13.91,24.2,13.89,24.38l0,.34-.24.25A25.6,25.6,0,0,1-643.15,387.84Zm-24.65-26.58c.15,2.55,1.42,14.82,12.46,21.11,14.91,8.5,25.74-.85,27.54-2.56.15-2.44.4-16.23-12.74-22C-654.22,351.8-665.63,359.61-667.8,361.26Z" transform="translate(680.83 -104.92)" style="fill:#222f39"/><line x1="61.52" y1="278.97" x2="29.4" y2="263.52" style="fill:#92deeb"/><rect x="-636.37" y="358.35" width="2" height="35.64" transform="translate(-18.23 -464.37) rotate(-64.32)" style="fill:#222f39"/><path d="M-615.43,343.61s-3.72-8.78,3.27-14.86c7.43-6.45,16.15-2.7,16.15-2.7s2.52,8.13-3.25,14.3A13.44,13.44,0,0,1-615.43,343.61Z" transform="translate(680.83 -104.92)" style="fill:#92deeb"/><path d="M-609.31,346a15,15,0,0,1-6.6-1.52l-.3-.17-.14-.31c0-.1-3.92-9.53,3.53-16,7.82-6.79,16.82-3,17.2-2.87l.42.18.14.44c.11.36,2.63,8.76-3.47,15.28A14.39,14.39,0,0,1-609.31,346Zm-5.32-3.11c1.56.73,8.46,3.39,14.64-3.22,4.54-4.86,3.53-11.15,3.14-12.87a14.87,14.87,0,0,0-14.66,2.71C-617.15,334.41-615.18,341.31-614.63,342.89Z" transform="translate(680.83 -104.92)" style="fill:#222f39"/><line x1="60.99" y1="242.4" x2="76.71" y2="228.18" style="fill:#92deeb"/><rect x="-622.58" y="339.21" width="21.19" height="2" transform="translate(294.27 -427.62) rotate(-42.15)" style="fill:#222f39"/><path d="M-625,352.34s4.39-10.34-3.85-17.5c-8.75-7.6-19-3.19-19-3.19s-3,9.59,3.82,16.86A15.83,15.83,0,0,0-625,352.34Z" transform="translate(680.83 -104.92)" style="fill:#92deeb"/><path d="M-632.2,355a16.8,16.8,0,0,1-12.58-5.79c-7.11-7.61-4.18-17.42-4.05-17.83l.14-.44.42-.19c.45-.19,10.95-4.57,20.08,3.36,8.69,7.54,4.16,18.53,4.11,18.64l-.13.32-.3.17A17.65,17.65,0,0,1-632.2,355ZM-647,332.4c-.45,1.92-1.78,9.55,3.71,15.43a14.91,14.91,0,0,0,17.53,3.79c.65-1.78,3.16-10.05-3.71-16C-636.76,329.29-645,331.68-647,332.4Z" transform="translate(680.83 -104.92)" style="fill:#222f39"/><line x1="61.04" y1="251.8" x2="42.52" y2="235.04" style="fill:#92deeb"/><rect x="-630.06" y="335.85" width="2" height="24.97" transform="translate(215.47 -456.76) rotate(-47.87)" style="fill:#222f39"/><path d="M-360.91,299a.49.49,0,0,0-.06-.17l-8.31-14.21a.4.4,0,0,0-.34-.2h0a.42.42,0,0,0-.35.2l-8.51,14.41a.39.39,0,0,0,0,.44.44.44,0,0,0,.06.16l8.31,11.91a.4.4,0,0,0,.33.17h0a.4.4,0,0,0,.33-.17l8.51-12.07A.42.42,0,0,0-360.91,299Zm-9.19,3-7.18-2.73,7.18-3.41Zm.8-6.16,7.23,3.29-7.23,2.89Zm-.32-10.22,7.32,12.53-7.24-3.3a.45.45,0,0,0-.34,0l-7.24,3.45Zm-.13,25L-377,300.27l7.17,2.73a.37.37,0,0,0,.29,0l7.17-2.86Z" transform="translate(680.83 -104.92)" style="fill:#222f39"/><path d="M-369.75,312.11a.79.79,0,0,1-.64-.33l-8.31-11.9a.88.88,0,0,1-.1-.22.77.77,0,0,1,0-.79l8.51-14.41a.81.81,0,0,1,1.34,0l8.31,14.21a.92.92,0,0,1,.09.23.79.79,0,0,1-.06.81l-8.51,12.08A.77.77,0,0,1-369.75,312.11Zm-8.34-12.72v.05l8.31,11.91,8.55-12.07,0,0-8.43,3.36v-7.31l8.4,3.82v-.05h0l-8.31-14.21-8.55,14.41,0,0,8.4-4v7.29Zm9.16-2.93v5l5.91-2.35Zm-7.39,2.8,5.84,2.23v-5Zm6.57,12-8.24-11.8,8.31,3.16,8.37-3.33ZM-376,301.06l6.23,8.93,6.37-9-6,2.4a.77.77,0,0,1-.56,0Zm-2.09-1.86,8.45-14.29,8.24,14.09-8.31-3.77Zm8.44-12.81-6.54,11.08,6.13-2.92a.8.8,0,0,1,.66,0l6.16,2.8Z" transform="translate(680.83 -104.92)" style="fill:#222f39"/><path d="M-495.58,216.38V212h1.4a7.45,7.45,0,0,0,7.44-7.44,7.47,7.47,0,0,0-7.44-7.42h-5.52a4.68,4.68,0,0,1-4.67-4.68,4.67,4.67,0,0,1,4.67-4.67h9.93a1.38,1.38,0,0,0,1.38-1.39,1.38,1.38,0,0,0-1.38-1.38h-5.79V180.5a1.38,1.38,0,0,0-1.38-1.38,1.38,1.38,0,0,0-1.38,1.38V185h-1.4a7.45,7.45,0,0,0-7.44,7.44,7.45,7.45,0,0,0,7.44,7.45h5.52a4.67,4.67,0,0,1,4.67,4.67,4.68,4.68,0,0,1-4.67,4.68H-504a1.38,1.38,0,0,0-1.38,1.38A1.38,1.38,0,0,0-504,212h5.61v4.39a1.39,1.39,0,0,0,1.39,1.38A1.38,1.38,0,0,0-495.58,216.38Z" transform="translate(680.83 -104.92)" style="fill:#222f39"/><rect width="370" height="370" style="fill:none"/></svg>