<?xml version="1.0" encoding="utf-8"?>
<!-- Generator: Adobe Illustrator 22.0.1, SVG Export Plug-In . SVG Version: 6.00 Build 0)  -->
<svg version="1.1" id="Слой_1" xmlns="http://www.w3.org/2000/svg" xmlns:xlink="http://www.w3.org/1999/xlink" x="0px" y="0px"
	 viewBox="0 0 371 371" style="enable-background:new 0 0 371 371;" xml:space="preserve">
<style type="text/css">
	.st0{opacity:0.3;}
	.st1{fill:#999999;}
	.st2{fill:#FFFFFF;}
	.st3{fill:#222F39;}
	.st4{fill:#FDCA5B;}
	.st5{fill:none;}
	.st6{fill:#F47A54;}
	.st7{fill:#222F39;stroke:#222F39;stroke-width:0.5;stroke-miterlimit:10;}
</style>
<title>step2</title>
<g class="st0">
	<path class="st1" d="M149,45.9h69.4c5.5,0,9.9,4.4,9.9,9.9l0,0c0,5.5-4.4,9.9-9.9,9.9H149c-5.5,0-9.9-4.4-9.9-9.9l0,0
		C139.1,50.4,143.5,45.9,149,45.9z"/>
	<path class="st1" d="M290.3,193.9c-3.4,0-6.2-2.8-6.2-6.2l0,0c0-6.8-5.5-12.3-12.3-12.3h-22.9c-3.5,0-6.4-2.9-6.4-6.4
		c0-3.5,2.9-6.4,6.4-6.4h0h86.2c5.6,0,10.1-4.5,10.1-10.1c0-5.6-4.5-10.1-10.1-10.1h0h-110c-1.8,0-3.3-1.5-3.3-3.3
		c0-1.8,1.5-3.3,3.3-3.3c0,0,0,0,0,0h18.3c5.5,0,10-4.5,10-10c0-5.1,4.2-9.3,9.3-9.3h26.8c5.3,0,9.6-4.3,9.6-9.6l0,0
		c0-5.3-4.3-9.6-9.6-9.6h-10.8c-6.9,0-12.5-5.5-12.5-12.4c0,0,0,0,0,0c0-5.3-4.3-9.6-9.6-9.6c0,0,0,0,0,0h-189c-4.9,0-9,3.9-9.1,8.9
		c-0.1,5,3.8,9.2,8.9,9.4c0.1,0,0.2,0,0.3,0h27.9c5.8,0,10.5,4.7,10.5,10.5c0,5.8-4.7,10.5-10.5,10.5H49.9c-5.4,0-9.8,4.4-9.8,9.8
		c0,0,0,0,0,0c0,5.4,4.4,9.8,9.8,9.8c0,0,0,0,0,0h34.7c5.8,0,10.5,4.7,10.5,10.5c0,5.8-4.7,10.5-10.5,10.5c0,0,0,0,0,0H10.9
		c-5.4,0-9.8,4.4-9.8,9.8c0,0,0,0,0,0c0,5.4,4.4,9.8,9.8,9.8c0,0,0,0,0,0h65.5c5.5,0,10,4.5,10,10l0,0c0,5.5-4.5,10-10,10h-3.6
		c-5.5,0-10,4.5-10,10s4.5,10,10,10h3.6c6.1,0,11,4.9,11,10.9c0,0,0,0,0,0.1c0,6.1-4.9,11-11,11c0,0,0,0-0.1,0h-2.3
		c-5.1,0-9.2,4.1-9.2,9.2c0,0,0,0,0,0c0,5.1,4.1,9.2,9.2,9.3c0,0,0,0,0,0h188c6.2,0,11.3-5.1,11.3-11.3c0,0,0,0,0,0
		c0-6.2-5.1-11.3-11.3-11.3h-7.7c-5.6,0-10.2-4.5-10.3-10.1c0-5.7,4.6-10.3,10.3-10.3c0,0,0,0,0,0h35.2c5,0,9-4,9-9V202
		C298.5,197.5,294.9,193.9,290.3,193.9C290.4,193.9,290.3,193.9,290.3,193.9z"/>
	<path class="st1" d="M154.7,262.8H224c5.5,0,9.9,4.4,9.9,9.9l0,0c0,5.5-4.4,9.9-9.9,9.9h-69.4c-5.5,0-9.9-4.4-9.9-9.9l0,0
		C144.8,267.3,149.2,262.8,154.7,262.8z"/>
	<circle class="st1" cx="127.1" cy="273" r="10.1"/>
	
		<ellipse transform="matrix(0.7071 -0.7071 0.7071 0.7071 17.2031 250.4852)" class="st1" cx="311" cy="104.5" rx="10.1" ry="10.1"/>
	
		<ellipse transform="matrix(0.9733 -0.2297 0.2297 0.9733 -25.3548 86.7055)" class="st1" cx="359.7" cy="152.3" rx="10.1" ry="10.1"/>
	<path class="st1" d="M350,174.6h-39.4c-5.8,0-10.5,4.7-10.5,10.5c0,5.8,4.7,10.5,10.5,10.5H350c5.8,0,10.5-4.7,10.5-10.5
		C360.5,179.3,355.8,174.6,350,174.6z"/>
</g>
<circle class="st2" cx="175.2" cy="262.1" r="62"/>
<path class="st3" d="M175.2,325.1c-34.7-0.1-62.9-28.2-62.9-62.9c0-34.7,28.2-62.9,62.9-62.9c34.8,0,63,28.2,63,62.9
	C238.1,296.9,209.9,325.1,175.2,325.1z M175.2,201.1c-33.7,0-61,27.3-61,61c0,33.7,27.3,61,61,61c33.7,0,61-27.3,61-61
	C236.1,228.5,208.8,201.2,175.2,201.1z"/>
<circle class="st4" cx="195.2" cy="258.7" r="18"/>
<path class="st3" d="M195.2,277.7c-10.5,0-19-8.5-19-19s8.5-19,19-19l0,0c10.5,0,19,8.5,19,19l0,0
	C214.2,269.2,205.7,277.7,195.2,277.7z M195.2,241.7c-9.4,0-17,7.7-17,17c0,9.4,7.6,17,17,17c9.4,0,17-7.6,17-17
	C212.2,249.4,204.6,241.7,195.2,241.7L195.2,241.7L195.2,241.7z"/>
<circle class="st4" cx="195.2" cy="258.8" r="12.8"/>
<path class="st3" d="M195.2,272.6c-7.6,0-13.8-6.2-13.8-13.8c0-7.6,6.2-13.8,13.8-13.8c7.6,0,13.8,6.2,13.8,13.8
	C209,266.4,202.8,272.6,195.2,272.6z M195.2,247c-6.5,0-11.8,5.3-11.8,11.8c0,6.5,5.3,11.8,11.8,11.8c6.5,0,11.8-5.3,11.8-11.8
	C207.1,252.3,201.8,247,195.2,247z"/>
<rect x="159.3" y="159" class="st2" width="32.8" height="43.5"/>
<path class="st3" d="M193.1,203.6h-34.8v-45.5h34.8V203.6z M160.2,201.6h30.9V160h-30.9L160.2,201.6z"/>
<rect x="154" y="141.1" class="st2" width="42.4" height="20.1"/>
<path class="st3" d="M197.4,162.2h-44.3v-22.1h44.3V162.2z M155,160.3h40.4v-18.1H155V160.3z"/>
<path class="st4" d="M228.9,262.1H121.5c0,29.6,24,53.6,53.6,53.7C204.8,315.8,228.8,291.8,228.9,262.1
	C228.9,262.2,228.9,262.2,228.9,262.1z"/>
<path class="st3" d="M175.2,316.8c-30.1-0.1-54.6-24.5-54.6-54.6v-1h109.3v1C229.8,292.3,205.3,316.8,175.2,316.8z M122.5,263.1
	c0.6,28.7,24,51.6,52.6,51.7c28.7,0,52.1-23,52.7-51.7H122.5z"/>
<circle class="st2" cx="145.8" cy="274.5" r="7.3"/>
<path class="st3" d="M145.8,282.8c-4.6,0-8.3-3.7-8.3-8.3c0-4.6,3.7-8.3,8.3-8.3c4.6,0,8.3,3.7,8.3,8.3
	C154.1,279,150.4,282.7,145.8,282.8z M145.8,268.1c-3.5,0-6.3,2.8-6.3,6.3l0,0c0,3.5,2.8,6.3,6.3,6.3c0,0,0,0,0,0
	c3.5,0,6.3-2.8,6.3-6.3l0,0C152.1,271,149.3,268.1,145.8,268.1L145.8,268.1z"/>
<circle class="st2" cx="181.5" cy="297.3" r="4"/>
<path class="st3" d="M181.5,302.3c-2.7,0-4.9-2.2-4.9-4.9c0-2.7,2.2-4.9,4.9-4.9l0,0c2.7,0,4.9,2.2,4.9,4.9l0,0
	C186.4,300.1,184.2,302.3,181.5,302.3L181.5,302.3z M181.5,294.3c-1.7,0-3,1.3-3,3s1.3,3,3,3s3-1.3,3-3S183.1,294.3,181.5,294.3z"/>
<circle class="st2" cx="198.6" cy="278.3" r="6.4"/>
<path class="st3" d="M198.5,285.7c-4.1,0-7.4-3.3-7.4-7.4c0-4.1,3.3-7.4,7.4-7.4c4.1,0,7.4,3.3,7.4,7.4
	C205.9,282.4,202.6,285.7,198.5,285.7z M198.5,272.9c-3,0-5.4,2.4-5.4,5.5c0,3,2.4,5.4,5.4,5.4c3,0,5.4-2.4,5.5-5.4
	C204,275.3,201.5,272.9,198.5,272.9z"/>
<circle class="st4" cx="169.3" cy="220.1" r="13"/>
<path class="st3" d="M169.3,233.9c-7.6,0-13.7-6.1-13.7-13.7c0-7.6,6.1-13.7,13.7-13.7c7.6,0,13.7,6.1,13.7,13.7
	C183,227.7,176.9,233.8,169.3,233.9z M169.3,207.9c-6.8,0-12.2,5.5-12.2,12.3c0,0,0,0,0,0c0,6.8,5.5,12.2,12.2,12.2
	c6.8,0,12.2-5.5,12.2-12.2C181.5,213.4,176.1,207.9,169.3,207.9L169.3,207.9z"/>
<circle class="st4" cx="169.4" cy="220.2" r="9.2"/>
<path class="st3" d="M169.3,230.1c-5.5,0-10-4.5-10-10c0-5.5,4.5-9.9,10-10c5.5,0,10,4.4,10,10C179.3,225.7,174.9,230.1,169.3,230.1
	z M169.3,211.7c-4.7,0-8.5,3.8-8.5,8.5c0,4.7,3.8,8.5,8.5,8.5c4.7,0,8.5-3.8,8.5-8.5C177.8,215.5,174,211.7,169.3,211.7z"/>
<circle class="st4" cx="171.1" cy="182.6" r="4.6"/>
<path class="st3" d="M171.1,188c-3,0-5.4-2.4-5.4-5.4c0-3,2.4-5.4,5.4-5.4c3,0,5.4,2.4,5.4,5.4S174,187.9,171.1,188z M171.1,178.7
	c-2.2,0-3.9,1.7-3.9,3.9c0,2.2,1.8,3.9,3.9,3.9c2.2,0,3.9-1.7,3.9-3.9C175,180.4,173.2,178.7,171.1,178.7z"/>
<circle class="st4" cx="148.5" cy="242.5" r="6.5"/>
<path class="st3" d="M148.5,249.7c-4,0-7.2-3.2-7.2-7.2c0-4,3.2-7.2,7.2-7.3c4,0,7.2,3.2,7.3,7.3
	C155.8,246.5,152.5,249.7,148.5,249.7z M148.5,236.7c-3.2,0-5.8,2.6-5.8,5.8c0,3.2,2.6,5.8,5.8,5.8c3.2,0,5.8-2.6,5.8-5.8
	C154.3,239.3,151.7,236.7,148.5,236.7C148.5,236.7,148.5,236.7,148.5,236.7L148.5,236.7z"/>
<circle class="st4" cx="169.1" cy="129.8" r="4.7"/>
<path class="st3" d="M169.2,135.1c-3,0-5.4-2.4-5.4-5.4v0c0-3,2.4-5.4,5.4-5.4c3,0,5.4,2.4,5.4,5.4v0
	C174.6,132.7,172.1,135.1,169.2,135.1z M169.2,125.8c-2.2,0-4,1.8-4,4c0,2.2,1.8,4,4,4c2.2,0,3.9-1.8,4-4
	C173.1,127.6,171.3,125.8,169.2,125.8L169.2,125.8z"/>
<circle class="st4" cx="190.5" cy="91.2" r="6.5"/>
<path class="st3" d="M190.5,98.5c-4,0-7.2-3.2-7.2-7.2c0-4,3.2-7.2,7.2-7.3c4,0,7.2,3.2,7.3,7.3C197.7,95.2,194.5,98.5,190.5,98.5z
	 M190.5,85.5c-3.2,0-5.8,2.6-5.8,5.8s2.6,5.8,5.8,5.8s5.8-2.6,5.8-5.8C196.3,88,193.7,85.5,190.5,85.5
	C190.5,85.4,190.5,85.4,190.5,85.5L190.5,85.5z"/>
<circle class="st2" cx="159.5" cy="92.9" r="6.4"/>
<path class="st3" d="M159.5,100.3c-4.1,0-7.4-3.3-7.4-7.4c0-4.1,3.3-7.4,7.4-7.4c4.1,0,7.4,3.3,7.4,7.4
	C166.9,97,163.6,100.3,159.5,100.3z M159.5,87.5c-3,0-5.4,2.4-5.5,5.4c0,3,2.4,5.4,5.5,5.4c3,0,5.4-2.4,5.4-5.4
	C165,89.9,162.5,87.5,159.5,87.5z"/>
<circle class="st2" cx="209.8" cy="132.4" r="4"/>
<path class="st3" d="M209.8,137.1c-2.6,0-4.7-2.1-4.7-4.7c0-2.6,2.1-4.7,4.7-4.7c2.6,0,4.7,2.1,4.7,4.7
	C214.5,135,212.4,137.1,209.8,137.1z M209.8,129.2c-1.8,0-3.2,1.4-3.2,3.2c0,0,0,0,0,0c0,1.8,1.4,3.2,3.2,3.2c0,0,0,0,0,0
	c1.8,0,3.2-1.4,3.2-3.2c0,0,0,0,0,0C213,130.7,211.6,129.2,209.8,129.2C209.8,129.2,209.8,129.2,209.8,129.2L209.8,129.2z"/>
<line class="st5" x1="186.5" y1="108.5" x2="190.1" y2="112.2"/>
<path class="st3" d="M190.2,113.1c-0.3,0-0.5-0.1-0.7-0.3l-3.7-3.7c-0.4-0.4-0.4-1,0-1.4c0.4-0.4,1-0.4,1.4,0l3.7,3.7
	c0.4,0.4,0.4,1,0,1.4C190.7,113,190.4,113.1,190.2,113.1z"/>
<line class="st5" x1="194.1" y1="115.3" x2="197.8" y2="119"/>
<path class="st3" d="M197.8,120c-0.3,0-0.5-0.1-0.7-0.3l-3.7-3.7c-0.4-0.4-0.4-1,0-1.4c0.4-0.4,1-0.4,1.4,0l3.7,3.7
	c0.4,0.4,0.4,1,0,1.4C198.3,119.9,198,120,197.8,120z"/>
<line class="st5" x1="186.9" y1="119.4" x2="190.6" y2="115.7"/>
<path class="st3" d="M186.9,120.4c-0.3,0-0.5-0.1-0.7-0.2c-0.4-0.4-0.4-1,0-1.4l3.7-3.7c0.4-0.4,1-0.4,1.4,0c0.4,0.4,0.4,1,0,1.4
	l-3.7,3.7C187.4,120.3,187.1,120.4,186.9,120.4z"/>
<line class="st5" x1="193.7" y1="111.8" x2="197.4" y2="108.1"/>
<path class="st3" d="M193.7,112.7c-0.3,0-0.5-0.1-0.7-0.3c-0.4-0.4-0.4-1,0-1.4l3.7-3.7c0.4-0.4,1-0.4,1.4,0c0.4,0.4,0.4,1,0,1.4
	l-3.7,3.7C194.2,112.6,193.9,112.7,193.7,112.7z"/>
<line class="st5" x1="128.9" y1="108.8" x2="135.4" y2="115.4"/>
<path class="st3" d="M135.4,116.4c-0.3,0-0.5-0.1-0.7-0.3l-6.5-6.5c-0.4-0.4-0.4-1,0-1.4c0.4-0.4,1-0.4,1.4,0l6.5,6.5
	c0.4,0.4,0.4,1,0,1.4C135.9,116.2,135.7,116.3,135.4,116.4z"/>
<line class="st5" x1="142.4" y1="120.9" x2="149" y2="127.5"/>
<path class="st3" d="M149,128.5c-0.3,0-0.5-0.1-0.7-0.3l-6.5-6.5c-0.4-0.4-0.4-1,0-1.4c0.4-0.4,1-0.4,1.4,0l6.5,6.5
	c0.4,0.4,0.4,1,0,1.4C149.5,128.3,149.2,128.4,149,128.5z"/>
<line class="st5" x1="129.6" y1="128.2" x2="136.1" y2="121.7"/>
<path class="st3" d="M129.6,129.2c-0.3,0-0.5-0.1-0.7-0.3c-0.4-0.4-0.4-1,0-1.4l6.5-6.5c0.4-0.4,1-0.4,1.4,0c0.4,0.4,0.4,1,0,1.4
	l-6.5,6.5C130.1,129.1,129.9,129.2,129.6,129.2z"/>
<line class="st5" x1="141.7" y1="114.6" x2="148.2" y2="108.1"/>
<path class="st3" d="M141.7,115.6c-0.3,0-0.5-0.1-0.7-0.3c-0.4-0.4-0.4-1,0-1.4l6.5-6.5c0.4-0.4,1-0.4,1.4,0c0.4,0.4,0.4,1,0,1.4
	l-6.5,6.5C142.2,115.5,142,115.6,141.7,115.6z"/>
<path class="st2" d="M259.6,222.7H284l0,0v90.3c0,6.1-4.9,11-11,11h-2.3c-6.1,0-11-4.9-11-11L259.6,222.7L259.6,222.7L259.6,222.7z"
	/>
<path class="st3" d="M271.8,325.1c-7.3,0-13.2-5.9-13.2-13.2v-90.1H285v90.1C285,319.2,279.1,325.1,271.8,325.1z M260.6,223.7v88.2
	c0,6.2,5,11.2,11.2,11.2l0,0c6.2,0,11.2-5,11.2-11.2v-88.2H260.6z"/>
<rect x="255.7" y="219.1" class="st2" width="32.2" height="10.3"/>
<path class="st3" d="M288.9,230.4h-34.1v-12.3h34.1V230.4z M256.7,228.4h30.2V220h-30.2V228.4z"/>
<path class="st6" d="M263,246.5v64.2c0,4.8,3.9,8.8,8.8,8.8c4.8,0,8.8-3.9,8.8-8.8v-64.2H263z"/>
<path class="st3" d="M271.8,320.5c-5.4,0-9.8-4.4-9.8-9.8v-65.2h19.5v65.2C281.6,316.1,277.2,320.5,271.8,320.5z M264,247.5v63.2
	c0,4.3,3.5,7.8,7.8,7.8c4.3,0,7.8-3.5,7.8-7.8v-63.2L264,247.5z"/>
<line class="st5" x1="276.2" y1="236.5" x2="283.4" y2="236.5"/>
<rect x="276.2" y="235.7" class="st3" width="7.2" height="1.5"/>
<line class="st5" x1="276.2" y1="242.3" x2="283.4" y2="242.3"/>
<rect x="276.2" y="241.6" class="st3" width="7.2" height="1.5"/>
<line class="st5" x1="276.2" y1="249.1" x2="283.4" y2="249.1"/>
<rect x="276.2" y="248.4" class="st3" width="7.2" height="1.5"/>
<line class="st5" x1="276.2" y1="256" x2="283.4" y2="256"/>
<rect x="276.2" y="255.2" class="st3" width="7.2" height="1.5"/>
<line class="st5" x1="276.2" y1="261.8" x2="283.4" y2="261.8"/>
<rect x="276.2" y="261.1" class="st3" width="7.2" height="1.5"/>
<line class="st5" x1="276.2" y1="268.7" x2="283.4" y2="268.7"/>
<rect x="276.2" y="267.9" class="st3" width="7.2" height="1.5"/>
<line class="st5" x1="276.2" y1="274.5" x2="283.4" y2="274.5"/>
<rect x="276.2" y="273.8" class="st3" width="7.2" height="1.5"/>
<line class="st5" x1="276.2" y1="281.3" x2="283.4" y2="281.3"/>
<rect x="276.2" y="280.6" class="st3" width="7.2" height="1.5"/>
<line class="st5" x1="276.2" y1="288.2" x2="283.4" y2="288.2"/>
<rect x="276.2" y="287.4" class="st3" width="7.2" height="1.5"/>
<line class="st5" x1="276.2" y1="294" x2="283.4" y2="294"/>
<rect x="276.2" y="293.3" class="st3" width="7.2" height="1.5"/>
<circle class="st2" cx="278.1" cy="204.3" r="4"/>
<path class="st3" d="M278.1,209c-2.6,0-4.7-2.1-4.7-4.7c0-2.6,2.1-4.7,4.7-4.7c2.6,0,4.7,2.1,4.7,4.7
	C282.8,206.9,280.7,209,278.1,209z M278.1,201.1c-1.8,0-3.2,1.4-3.2,3.2s1.4,3.2,3.2,3.2s3.2-1.4,3.2-3.2
	C281.3,202.6,279.8,201.1,278.1,201.1L278.1,201.1z"/>
<line class="st5" x1="256.6" y1="192.9" x2="259.7" y2="196"/>
<path class="st3" d="M259.7,197c-0.3,0-0.5-0.1-0.7-0.3l-3.1-3.1c-0.4-0.4-0.4-1,0-1.4c0.4-0.4,1-0.4,1.4,0l3.1,3.1
	c0.4,0.4,0.4,1,0,1.4C260.2,196.8,259.9,196.9,259.7,197z"/>
<line class="st5" x1="263" y1="198.6" x2="266.1" y2="201.7"/>
<path class="st3" d="M266.1,202.6c-0.3,0-0.5-0.1-0.7-0.3l-3.1-3.1c-0.4-0.4-0.4-1,0-1.4c0.4-0.4,1-0.4,1.4,0l3.1,3.1
	c0.4,0.4,0.4,1,0,1.4C266.6,202.5,266.3,202.6,266.1,202.6z"/>
<line class="st5" x1="257" y1="202" x2="260" y2="198.9"/>
<path class="st3" d="M256.9,203c-0.3,0-0.5-0.1-0.7-0.3c-0.4-0.4-0.4-1,0-1.4l3.1-3.1c0.4-0.4,1-0.4,1.4,0c0.4,0.4,0.4,1,0,1.4
	l-3.1,3.1C257.4,202.9,257.2,203,256.9,203z"/>
<line class="st5" x1="262.6" y1="195.6" x2="265.7" y2="192.6"/>
<path class="st3" d="M262.6,196.6c-0.3,0-0.5-0.1-0.7-0.3c-0.4-0.4-0.4-1,0-1.4l3.1-3.1c0.4-0.4,1-0.4,1.4,0c0.4,0.4,0.4,1,0,1.4
	l-3.1,3.1C263.1,196.5,262.9,196.6,262.6,196.6z"/>
<line class="st5" x1="280.1" y1="173.2" x2="281.9" y2="175"/>
<path class="st3" d="M281.9,175.8c-0.2,0-0.4-0.1-0.5-0.2l-1.8-1.8c-0.3-0.3-0.3-0.7,0-1c0.3-0.3,0.7-0.3,1,0l1.8,1.8
	c0.3,0.3,0.3,0.7,0,1C282.2,175.7,282.1,175.8,281.9,175.8z"/>
<line class="st5" x1="283.8" y1="176.5" x2="285.6" y2="178.3"/>
<path class="st3" d="M285.6,179.1c-0.2,0-0.4-0.1-0.5-0.2l-1.8-1.8c-0.3-0.3-0.3-0.7,0-1c0.3-0.3,0.7-0.3,1,0l1.8,1.8
	c0.3,0.3,0.3,0.7,0,1C285.9,179,285.8,179.1,285.6,179.1z"/>
<line class="st5" x1="280.3" y1="178.5" x2="282.1" y2="176.7"/>
<path class="st3" d="M280.3,179.3c-0.2,0-0.4-0.1-0.5-0.2c-0.3-0.3-0.3-0.7,0-1l1.8-1.8c0.3-0.3,0.7-0.3,1,0c0.3,0.3,0.3,0.7,0,1
	l-1.8,1.8C280.6,179.2,280.5,179.2,280.3,179.3z"/>
<line class="st5" x1="283.6" y1="174.8" x2="285.4" y2="173"/>
<path class="st3" d="M283.6,175.6c-0.2,0-0.4-0.1-0.5-0.2c-0.3-0.3-0.3-0.7,0-1l1.8-1.8c0.3-0.3,0.7-0.3,1,0c0.3,0.3,0.3,0.7,0,1
	l-1.8,1.8C283.9,175.5,283.8,175.5,283.6,175.6z"/>
<path class="st2" d="M281.5,185.5h26.9v7.7h-26.7c-1.3,0-2.6-0.4-3.6-1.1l-2.3-1.6c-0.7-0.5-0.9-1.5-0.4-2.2
	c0.1-0.2,0.3-0.3,0.5-0.4l2.3-1.4C279.1,185.8,280.3,185.5,281.5,185.5z"/>
<polygon class="st6" points="284.3,185.4 284.3,193.3 280.3,193.1 275.1,189.3 280.8,185.5 "/>
<path class="st3" d="M309.3,194.1h-27.7c-1.5,0-2.9-0.4-4.2-1.3l-2.3-1.6c-0.7-0.5-1.1-1.3-1-2.1c0-0.9,0.5-1.6,1.2-2.1l2.3-1.4
	c1.2-0.7,2.5-1.1,3.9-1.1h27.8L309.3,194.1z M281.5,186.5c-1,0-2,0.3-2.8,0.8l-2.3,1.4c-0.2,0.1-0.3,0.3-0.3,0.5
	c0,0.2,0.1,0.4,0.3,0.5l2.3,1.6c0.9,0.6,2,1,3,1h25.7v-5.8L281.5,186.5z"/>
<path class="st6" d="M307.9,184.3h22.8c2.4,0,4.3,1.9,4.3,4.3v0.9c0,2.4-1.9,4.3-4.3,4.3h-22.8l0,0V184.3L307.9,184.3z"/>
<path class="st3" d="M330.3,194.9H307v-11.5h23.3c3.2,0,5.8,2.6,5.8,5.8C336.1,192.3,333.5,194.9,330.3,194.9z M308.9,192.9h21.4
	c2.1,0,3.8-1.7,3.9-3.8c0-2.1-1.7-3.8-3.8-3.8H309L308.9,192.9z"/>
<path class="st6" d="M308.3,182.3h0.4c1.2,0,2.1,1,2.1,2.1v9.3c0,1.2-1,2.1-2.1,2.1h-0.4c-1.2,0-2.1-1-2.1-2.1v-9.3
	C306.1,183.3,307.1,182.3,308.3,182.3z"/>
<path class="st3" d="M308.5,196.9c-1.8,0-3.3-1.5-3.3-3.3v-8.9c0-1.8,1.5-3.3,3.3-3.3c1.8,0,3.3,1.5,3.3,3.3l0,0v8.9
	C311.8,195.4,310.3,196.9,308.5,196.9L308.5,196.9z M308.5,183.3c-0.8,0-1.4,0.6-1.4,1.4v8.9c0,0.8,0.6,1.4,1.4,1.4
	c0.8,0,1.4-0.6,1.4-1.4v-8.9C309.8,183.9,309.2,183.3,308.5,183.3z"/>
<line class="st5" x1="284" y1="185.4" x2="284" y2="192.9"/>
<rect x="283" y="185.4" class="st3" width="2" height="7.5"/>
<path class="st6" d="M254.1,172.6l7.6,2.1c1.3,0.4,2.8,0.1,3.9-0.7c1.1-0.8,1.8-2.2,1.8-3.6l0.1-7.9c0-1-0.3-1.9-0.9-2.7L253.3,142
	c-0.7-0.9-2-1.1-3-0.4l-11.4,8.5c-0.9,0.7-1.1,2-0.4,3l13.3,17.8C252.3,171.7,253.1,172.3,254.1,172.6z M259.1,165.2
	c1.2-0.9,3-0.7,3.9,0.6c0.9,1.2,0.7,3-0.6,4c-1.2,0.9-3,0.7-3.9-0.6c0,0,0,0,0,0C257.6,167.9,257.8,166.2,259.1,165.2
	C259,165.2,259,165.2,259.1,165.2L259.1,165.2z"/>
<path class="st3" d="M262.9,175.6c-0.5,0-1-0.1-1.4-0.2l-7.6-2.1c-1.1-0.3-2.1-1-2.7-1.9l-13.3-17.8c-0.9-1.3-0.7-3,0.6-4l11.4-8.5
	c1.3-0.9,3.1-0.7,4.1,0.6l13.2,17.7c0.7,0.9,1,2,1,3.2l-0.1,7.9c0,1.6-0.8,3.2-2.1,4.2C265.1,175.2,264,175.6,262.9,175.6z
	 M254.3,171.8l7.6,2.1c1.1,0.3,2.3,0.1,3.3-0.6c0.9-0.7,1.5-1.8,1.5-3l0.1-7.9c0-0.8-0.3-1.6-0.8-2.3l-13.2-17.8
	c-0.5-0.6-1.4-0.8-2-0.3l-11.4,8.5c-0.6,0.5-0.8,1.4-0.3,2l13.3,17.8C252.8,171.1,253.5,171.6,254.3,171.8L254.3,171.8z M260.7,171
	c-1.1,0-2.2-0.5-2.8-1.4c-0.6-0.8-0.8-1.7-0.7-2.6c0.1-0.9,0.6-1.8,1.4-2.3c1.6-1.2,3.8-0.9,5,0.7c0,0,0,0,0,0
	c1.2,1.6,0.9,3.8-0.7,5c0,0,0,0-0.1,0C262.3,170.8,261.5,171.1,260.7,171L260.7,171z M260.7,165.4c-0.4,0-0.9,0.1-1.2,0.4
	c-0.4,0.3-0.7,0.8-0.8,1.4c-0.1,0.5,0.1,1.1,0.4,1.5c0.3,0.4,0.8,0.7,1.4,0.8c0.5,0.1,1.1-0.1,1.5-0.4c0.4-0.3,0.7-0.8,0.8-1.4
	c0.1-0.5-0.1-1.1-0.4-1.5C262,165.7,261.4,165.4,260.7,165.4L260.7,165.4z"/>
<ellipse transform="matrix(0.9985 -5.530040e-02 5.530040e-02 0.9985 -16.317 4.9902)" class="st4" cx="82" cy="297.3" rx="21.5" ry="21.5"/>
<path class="st3" d="M90.7,318c-11.4,4.8-24.5-0.6-29.3-12c-4.8-11.4,0.6-24.5,12-29.3c11.4-4.8,24.5,0.6,29.3,12
	C107.4,300.1,102.1,313.2,90.7,318z M74.1,278.4c-10.4,4.4-15.4,16.4-11,26.8c4.4,10.4,16.4,15.4,26.8,11
	c10.4-4.4,15.4-16.4,11-26.8C96.5,279,84.5,274.1,74.1,278.4z"/>
<circle class="st4" cx="82.1" cy="297.4" r="15.3"/>
<path class="st3" d="M88.4,312.3c-8.3,3.4-17.7-0.4-21.2-8.7c-3.4-8.3,0.4-17.7,8.7-21.2c8.3-3.4,17.7,0.5,21.2,8.7
	C100.5,299.4,96.6,308.8,88.4,312.3z M76.6,284.1c-7.3,3.1-10.7,11.4-7.7,18.7c3.1,7.3,11.4,10.7,18.7,7.7
	c7.3-3.1,10.7-11.4,7.7-18.7C92.2,284.5,83.9,281.1,76.6,284.1z"/>
<path class="st3" d="M84.8,294.6c0.4-1,0.5-2.1,0-3.1c-0.8-1.9-3.1-2.8-5-2l-0.2,0.1l-0.5-1.2c-0.2-0.4-0.6-0.6-1-0.4
	c-0.4,0.2-0.6,0.6-0.4,1l0.5,1.1l-1.3,0.5l-0.9-2.1c-0.2-0.4-0.6-0.6-1-0.4c-0.4,0.2-0.6,0.6-0.4,1l0.9,2.1l-1.6,0.7
	c-0.4,0.2-0.6,0.6-0.4,1c0.2,0.4,0.6,0.6,1,0.4l0.2-0.1l5.1,12.1l-0.2,0.1c-0.4,0.2-0.6,0.6-0.4,1c0.2,0.4,0.6,0.6,1,0.4l1.6-0.7
	l0.9,2.1c0.2,0.4,0.6,0.6,1,0.4c0.4-0.2,0.6-0.6,0.4-1l-0.9-2.1l1.3-0.5l0.5,1.1c0.2,0.4,0.6,0.6,1,0.4c0.4-0.2,0.6-0.6,0.4-1
	l-0.5-1.1l0.5-0.2c2.6-1.1,3.8-4.1,2.7-6.7C88.3,295.9,86.7,294.8,84.8,294.6z M80.4,291c1.1-0.5,2.5,0.1,2.9,1.2
	c0.5,1.1,0,2.5-1.2,3c0,0,0,0,0,0l-4.5,1.9l-1.7-4.2L80.4,291L80.4,291z M85.8,303l-4.7,2l-2.7-6.5l4.7-2c1.8-0.7,3.9,0.1,4.6,1.9
	C88.4,300.1,87.5,302.2,85.8,303L85.8,303z"/>
<circle class="st4" cx="65.8" cy="205.8" r="21.8"/>
<path class="st3" d="M59.4,227.5c-11.9-3.5-18.7-16.1-15.2-28c3.5-12,16.1-18.8,28-15.3c0,0,0,0,0,0c11.9,3.6,18.8,16.1,15.2,28
	C83.9,224.1,71.4,231,59.4,227.5z M71.8,185.7c-11.1-3.2-22.7,3.1-26,14.2c-3.3,11.1,3.1,22.8,14.1,26.1
	c11.1,3.3,22.8-3.1,26.1-14.2C89.2,200.6,82.9,189,71.8,185.7z"/>
<circle class="st4" cx="65.8" cy="205.9" r="15.5"/>
<path class="st3" d="M61.2,221.5c-8.6-2.6-13.5-11.6-11-20.2c2.6-8.6,11.6-13.5,20.2-11c8.6,2.6,13.5,11.6,11,20.2
	C78.9,219.1,69.9,224.1,61.2,221.5z M70,191.8c-7.8-2.3-15.9,2.1-18.2,9.9c-2.3,7.8,2.1,15.9,9.9,18.2c7.8,2.3,15.9-2.1,18.2-9.9
	C82.2,202.3,77.8,194.1,70,191.8L70,191.8z"/>
<path class="st7" d="M72.5,208.1c0-0.1,0-0.1,0-0.2l-3.3-13.4c0-0.1-0.1-0.2-0.2-0.2l0,0c-0.1,0-0.2,0-0.3,0.1L58.3,204
	c-0.1,0.1-0.1,0.2-0.1,0.4c0,0,0,0.1,0,0.1l3.9,11.6c0,0.1,0.1,0.2,0.2,0.2l0,0c0.1,0,0.2,0,0.3-0.1l9.8-7.7
	C72.5,208.5,72.6,208.3,72.5,208.1z M64.3,208.4l-5.1-3.9l6.6-1L64.3,208.4z M66.5,203.6l5.1,4.4l-6.5,0.6L66.5,203.6z M68.6,195.2
	l2.9,11.9l-5.1-4.4c-0.1-0.1-0.2-0.1-0.3-0.1l-6.7,1.1L68.6,195.2z M62.6,215.4l-3.4-10.1l5.1,3.9c0.1,0,0.2,0.1,0.2,0.1l6.5-0.6
	L62.6,215.4z"/>
<path class="st6" d="M345.7,273.4l-0.8-10.3c-0.1-1.8-1.1-3.5-2.7-4.5c-1.6-1-3.5-1.2-5.3-0.6l-9.8,3.5c-1.2,0.4-2.3,1.3-3,2.3
	l-15.9,24.5c-0.9,1.3-0.5,3.1,0.8,4c0,0,0,0,0,0l15.7,10.2c1.3,0.9,3.1,0.5,4-0.8c0,0,0,0,0-0.1l16-24.6
	C345.5,276,345.8,274.7,345.7,273.4z M334.4,270.6c-1.7-1.1-2.2-3.4-1.1-5.2c1.1-1.7,3.4-2.2,5.1-1.1c1.7,1.1,2.2,3.4,1.1,5.2
	C338.4,271.2,336.1,271.7,334.4,270.6z"/>
<path class="st3" d="M345.5,261.1c0.2,0.6,0.4,1.2,0.4,1.9l0.8,10.3c0.1,1.5-0.3,3-1.1,4.3l-16,24.6c-1.2,1.8-3.5,2.3-5.3,1.1
	l-15.7-10.2c-1.8-1.2-2.3-3.5-1.1-5.3l15.9-24.5c0.8-1.3,2-2.2,3.4-2.7l9.8-3.5c2-0.7,4.3-0.5,6.1,0.7
	C344,258.5,345,259.7,345.5,261.1z M344.8,273.5l-0.8-10.3c-0.1-1.5-1-2.9-2.3-3.8c-1.3-0.8-2.9-1-4.4-0.5l-9.8,3.5
	c-1,0.4-1.9,1.1-2.5,2l-15.9,24.5c-0.6,0.9-0.3,2,0.6,2.6c0,0,0,0,0,0l15.7,10.2c0.9,0.6,2,0.3,2.6-0.5l16-24.6
	C344.6,275.7,344.9,274.6,344.8,273.5L344.8,273.5z M340.8,265.9c0.5,1.4,0.3,2.9-0.5,4.2c-0.7,1-1.8,1.8-3,2
	c-1.2,0.3-2.5,0-3.5-0.7c-2.2-1.4-2.8-4.3-1.4-6.5c1.4-2.2,4.3-2.8,6.5-1.4C339.8,264.1,340.4,264.9,340.8,265.9L340.8,265.9z
	 M333.8,268.5c0.2,0.6,0.6,1,1.1,1.3c0.6,0.4,1.4,0.5,2.1,0.4c0.7-0.2,1.3-0.6,1.7-1.2c0.4-0.6,0.5-1.4,0.4-2.1
	c-0.1-0.7-0.6-1.3-1.2-1.7c-0.6-0.4-1.4-0.5-2.1-0.4c-0.7,0.1-1.3,0.6-1.7,1.2C333.6,266.7,333.5,267.6,333.8,268.5L333.8,268.5z"/>
<rect x="0.5" y="0.5" class="st5" width="370" height="370"/>
</svg>
