<svg xmlns="http://www.w3.org/2000/svg" viewBox="0 0 370 370"><title>step3</title><g style="opacity:0.30000000000000004"><rect x="138.05" y="50.55" width="89.21" height="19.86" rx="9.93" ry="9.93" style="fill:#999"/><path d="M-272.45,478.33a6.21,6.21,0,0,1-6.21-6.21h0a12.28,12.28,0,0,0-12.28-12.29h-22.91a6.42,6.42,0,0,1-6.42-6.42,6.43,6.43,0,0,1,6.42-6.42h86.17a10.14,10.14,0,0,0,10.14-10.14,10.15,10.15,0,0,0-10.14-10.15h-110a3.33,3.33,0,0,1-3.34-3.34,3.33,3.33,0,0,1,3.34-3.33h18.29a10,10,0,0,0,10-10,9.3,9.3,0,0,1,9.3-9.3h26.78a9.63,9.63,0,0,0,9.63-9.63,9.63,9.63,0,0,0-9.63-9.63h-10.79a12.45,12.45,0,0,1-12.45-12.45,9.64,9.64,0,0,0-9.63-9.64h-189a9.12,9.12,0,0,0-9.12,8.86,9.12,9.12,0,0,0,9.12,9.38h27.86a10.53,10.53,0,0,1,10.53,10.53,10.54,10.54,0,0,1-10.53,10.53h-45.46a9.76,9.76,0,0,0-9.76,9.76,9.76,9.76,0,0,0,9.76,9.76h34.67a10.52,10.52,0,0,1,10.53,10.53,10.53,10.53,0,0,1-10.53,10.53h-73.71a9.76,9.76,0,0,0-9.76,9.76,9.76,9.76,0,0,0,9.76,9.76h65.49a10,10,0,0,1,10,10h0a10,10,0,0,1-10,10H-490a10,10,0,0,0-10,10,10,10,0,0,0,10,10h3.59a11.05,11.05,0,0,1,11.05,11.05,11,11,0,0,1-11.05,11h-2.31a9.25,9.25,0,0,0-9.25,9.25,9.25,9.25,0,0,0,9.25,9.24h188a11.3,11.3,0,0,0,11.3-11.3,11.3,11.3,0,0,0-11.3-11.3h-7.7a10.27,10.27,0,0,1-10.28-10.27,10.28,10.28,0,0,1,10.28-10.28h35.18a9,9,0,0,0,9-9v-.82A8.17,8.17,0,0,0-272.45,478.33Z" transform="translate(561.74 -279.84)" style="fill:#999"/><rect x="143.7" y="267.44" width="89.21" height="19.86" rx="9.93" ry="9.93" style="fill:#999"/><circle cx="-435.71" cy="557.43" r="10.14" transform="translate(39.96 -424.67) rotate(-45)" style="fill:#999"/><circle cx="-251.82" cy="388.95" r="10.14" transform="translate(212.95 -343.99) rotate(-45)" style="fill:#999"/><circle cx="-203.03" cy="436.72" r="10.14" transform="translate(455.97 -314.81) rotate(-13.28)" style="fill:#999"/><path d="M-212.83,459.06h-39.38a10.56,10.56,0,0,0-10.53,10.53,10.56,10.56,0,0,0,10.53,10.53h39.38a10.56,10.56,0,0,0,10.53-10.53A10.56,10.56,0,0,0-212.83,459.06Z" transform="translate(561.74 -279.84)" style="fill:#999"/></g><line x1="211.26" y1="132.42" x2="256.14" y2="87.54" style="fill:#f47a54"/><rect x="-359.77" y="388.83" width="63.47" height="2" transform="translate(190.01 -397.62) rotate(-45)" style="fill:#222f39"/><line x1="211.26" y1="212.23" x2="281.83" y2="282.81" style="fill:#f47a54"/><rect x="-316.19" y="477.46" width="2" height="99.8" transform="translate(96.52 -348.26) rotate(-45)" style="fill:#222f39"/><line x1="225.35" y1="172.27" x2="252.44" y2="172.27" style="fill:#fff"/><rect x="225.35" y="171.27" width="27.09" height="2" style="fill:#222f39"/><line x1="131.27" y1="130.79" x2="111.4" y2="110.93" style="fill:#fff"/><rect x="-441.4" y="386.66" width="2" height="28.09" transform="translate(149.41 -473.89) rotate(-45)" style="fill:#222f39"/><circle cx="171.95" cy="172.89" r="45" style="fill:#fff"/><path d="M-388.9,427.54h0a14.06,14.06,0,0,1,14,13.32l1.6,29.77h-31.29l1.6-29.77A14.07,14.07,0,0,1-388.9,427.54Z" transform="translate(561.74 -279.84)" style="fill:#fdca5b"/><path d="M-372.21,471.63H-405.6l1.65-30.82a15.06,15.06,0,0,1,15-14.27,15.06,15.06,0,0,1,15.05,14.27Zm-31.28-2h29.17l-1.53-28.71a13.08,13.08,0,0,0-13.06-12.38,13.08,13.08,0,0,0-13,12.38Z" transform="translate(561.74 -279.84)" style="fill:#222f39"/><path d="M-409.51,476.62h0a10.29,10.29,0,0,1,7.47-9.9l3.34-.88a8.26,8.26,0,0,0,6.12-8v-1.13h7.83v.88a8.48,8.48,0,0,0,6.17,8.16l3.37.74a10.29,10.29,0,0,1,7.49,9.9v.18Z" transform="translate(561.74 -279.84)" style="fill:#fff"/><path d="M-410.51,477.62v-1a11.33,11.33,0,0,1,8.2-10.86l3.36-.88a7.31,7.31,0,0,0,5.38-7v-2.13h9.81v1.88a7.52,7.52,0,0,0,5.45,7.2l3.31.72a11.35,11.35,0,0,1,8.28,10.88v1.18Zm18.94-19.91v.13a9.28,9.28,0,0,1-6.86,9l-3.35.89a9.34,9.34,0,0,0-6.68,7.93l39.7-.05a9.34,9.34,0,0,0-6.73-8.12l-3.31-.72a9.54,9.54,0,0,1-6.95-9Z" transform="translate(561.74 -279.84)" style="fill:#222f39"/><path d="M-380.81,439.44h-15.8v9.46a9.2,9.2,0,0,0,3.12,6.92l1.91,1.7a3.7,3.7,0,0,0,2.44.92h.86a3.72,3.72,0,0,0,2.44-.92l1.91-1.7a9.24,9.24,0,0,0,3.12-6.92Z" transform="translate(561.74 -279.84)" style="fill:#fff"/><path d="M-388.28,459.44h-.86a4.68,4.68,0,0,1-3.1-1.17l-1.92-1.7a10.24,10.24,0,0,1-3.45-7.67V438.44h17.8V448.9a10.22,10.22,0,0,1-3.46,7.67l-1.91,1.7A4.72,4.72,0,0,1-388.28,459.44Zm-7.33-19v8.46a8.26,8.26,0,0,0,2.78,6.18l1.91,1.69a2.69,2.69,0,0,0,1.78.67h.86a2.69,2.69,0,0,0,1.77-.67l1.92-1.69a8.3,8.3,0,0,0,2.78-6.18v-8.46Z" transform="translate(561.74 -279.84)" style="fill:#222f39"/><polygon points="180.93 162.41 174.59 162.41 171.65 162.41 169.99 159.6 169.6 162.73 165.13 162.73 163.14 156.22 181.31 156.22 180.93 162.41" style="fill:#fdca5b"/><path d="M-391.25,443.58h-6.1l-2.6-8.52h20.58l-.5,8.2h-10.79l-.46-.78Zm-4.62-2H-393l.55-4.52h-4.78Zm6.35-.32h7.77l.26-4.2H-392Z" transform="translate(561.74 -279.84)" style="fill:#222f39"/><polygon points="179.78 161.7 183.22 161.71 182.55 154.85 161.9 154.85 161.66 162.36 163.65 162.36 164.01 158.06 169.51 157.16 172.63 158.26 179.78 161.7" style="fill:#fdca5b"/><path d="M-373.71,476.68l-2.78-10.43-3.84-1,.07.58a7.18,7.18,0,0,1-7.13,7.94h-2.06a7.17,7.17,0,0,1-7.1-8.17l.12-.88L-401,466.5l-2.5,10.18Z" transform="translate(561.74 -279.84)" style="fill:#f47a54"/><path d="M-372.41,477.68H-404.8l2.93-11.92,6.67-2.65-.36,2.59a6.14,6.14,0,0,0,1.45,4.9,6.17,6.17,0,0,0,4.66,2.13h2.06a6.18,6.18,0,0,0,4.59-2.05,6.15,6.15,0,0,0,1.54-4.78l-.22-2,5.8,1.58Zm-29.84-2H-375l-2.3-8.62-1.91-.52a8.19,8.19,0,0,1-2.09,5.47,8.16,8.16,0,0,1-6.08,2.72h-2.06a8.19,8.19,0,0,1-6.17-2.81,8.16,8.16,0,0,1-2-5.7l-2.56,1Z" transform="translate(561.74 -279.84)" style="fill:#222f39"/><line x1="131.67" y1="212.23" x2="106.25" y2="237.66" style="fill:#fff"/><rect x="-460.76" y="503.79" width="35.96" height="2" transform="translate(75.11 -445.09) rotate(-45)" style="fill:#222f39"/><circle cx="281.41" cy="63.64" r="38.73" style="fill:#fdca5b"/><path d="M-280.33,383.22a39.77,39.77,0,0,1-39.73-39.73,39.78,39.78,0,0,1,39.73-39.74,39.78,39.78,0,0,1,39.73,39.74A39.77,39.77,0,0,1-280.33,383.22Zm0-77.47a37.77,37.77,0,0,0-37.73,37.74,37.77,37.77,0,0,0,37.73,37.73,37.77,37.77,0,0,0,37.73-37.73A37.77,37.77,0,0,0-280.33,305.75Z" transform="translate(561.74 -279.84)" style="fill:#222f39"/><circle cx="313.96" cy="314.06" r="49.75" style="fill:#fff"/><path d="M-247.78,644.66a50.81,50.81,0,0,1-50.75-50.75,50.8,50.8,0,0,1,50.75-50.75A50.81,50.81,0,0,1-197,593.91,50.81,50.81,0,0,1-247.78,644.66Zm0-99.5a48.81,48.81,0,0,0-48.75,48.75,48.81,48.81,0,0,0,48.75,48.75A48.81,48.81,0,0,0-199,593.91,48.81,48.81,0,0,0-247.78,545.16Z" transform="translate(561.74 -279.84)" style="fill:#222f39"/><circle cx="265.02" cy="172.62" r="13.72" style="fill:#fdca5b"/><path d="M-296.72,467.19a14.74,14.74,0,0,1-14.72-14.73,14.74,14.74,0,0,1,14.72-14.72A14.74,14.74,0,0,1-282,452.46,14.74,14.74,0,0,1-296.72,467.19Zm0-27.45a12.74,12.74,0,0,0-12.72,12.72,12.74,12.74,0,0,0,12.72,12.73A12.74,12.74,0,0,0-284,452.46,12.73,12.73,0,0,0-296.72,439.74Z" transform="translate(561.74 -279.84)" style="fill:#222f39"/><circle cx="97.58" cy="97.65" r="19.5" style="fill:#fff"/><path d="M-464.16,398a20.52,20.52,0,0,1-20.5-20.5A20.52,20.52,0,0,1-464.16,357a20.51,20.51,0,0,1,20.49,20.49A20.51,20.51,0,0,1-464.16,398Zm0-39a18.52,18.52,0,0,0-18.5,18.49,18.52,18.52,0,0,0,18.5,18.5,18.51,18.51,0,0,0,18.49-18.5A18.51,18.51,0,0,0-464.16,359Z" transform="translate(561.74 -279.84)" style="fill:#222f39"/><circle cx="85.6" cy="257.57" r="32.17" style="fill:#f47a54"/><path d="M-476.14,570.58a33.21,33.21,0,0,1-33.16-33.17,33.21,33.21,0,0,1,33.16-33.17A33.21,33.21,0,0,1-443,537.41,33.21,33.21,0,0,1-476.14,570.58Zm0-64.34a31.2,31.2,0,0,0-31.16,31.17,31.2,31.2,0,0,0,31.16,31.17A31.2,31.2,0,0,0-445,537.41,31.2,31.2,0,0,0-476.14,506.24Z" transform="translate(561.74 -279.84)" style="fill:#222f39"/><circle cx="190.96" cy="19.16" r="12.97" style="fill:#fff"/><path d="M-370.78,313a14,14,0,0,1-14-14,14,14,0,0,1,14-14,14,14,0,0,1,14,14A14,14,0,0,1-370.78,313Zm0-26a12,12,0,0,0-12,12,12,12,0,0,0,12,12,12,12,0,0,0,12-12A12,12,0,0,0-370.78,287Z" transform="translate(561.74 -279.84)" style="fill:#222f39"/><circle cx="182.31" cy="314.31" r="17.31" style="fill:#fff"/><path d="M-379.42,612.46a18.33,18.33,0,0,1-18.31-18.31,18.33,18.33,0,0,1,18.31-18.31,18.32,18.32,0,0,1,18.3,18.31A18.32,18.32,0,0,1-379.42,612.46Zm0-34.62a16.33,16.33,0,0,0-16.31,16.31,16.33,16.33,0,0,0,16.31,16.31,16.32,16.32,0,0,0,16.3-16.31A16.32,16.32,0,0,0-379.42,577.84Z" transform="translate(561.74 -279.84)" style="fill:#222f39"/><circle cx="351.36" cy="192.54" r="17.59" style="fill:#f47a54"/><path d="M-210.38,491A18.61,18.61,0,0,1-229,472.39a18.61,18.61,0,0,1,18.59-18.6,18.61,18.61,0,0,1,18.59,18.6A18.61,18.61,0,0,1-210.38,491Zm0-35.19A16.61,16.61,0,0,0-227,472.39,16.61,16.61,0,0,0-210.38,489a16.61,16.61,0,0,0,16.59-16.59A16.61,16.61,0,0,0-210.38,455.79Z" transform="translate(561.74 -279.84)" style="fill:#222f39"/><circle cx="33.75" cy="152.58" r="9.79" style="fill:#fdca5b"/><path d="M-528,443.21a10.8,10.8,0,0,1-10.79-10.79A10.79,10.79,0,0,1-528,421.64a10.78,10.78,0,0,1,10.78,10.78A10.79,10.79,0,0,1-528,443.21Zm0-19.57a8.79,8.79,0,0,0-8.79,8.78,8.8,8.8,0,0,0,8.79,8.79,8.79,8.79,0,0,0,8.78-8.79A8.79,8.79,0,0,0-528,423.64Z" transform="translate(561.74 -279.84)" style="fill:#222f39"/><circle cx="86.18" cy="182.29" r="6.87" style="fill:#fff"/><path d="M-475.56,470a7.89,7.89,0,0,1-7.88-7.88,7.89,7.89,0,0,1,7.88-7.87,7.88,7.88,0,0,1,7.87,7.87A7.88,7.88,0,0,1-475.56,470Zm0-13.75a5.88,5.88,0,0,0-5.88,5.87,5.89,5.89,0,0,0,5.88,5.88,5.88,5.88,0,0,0,5.87-5.88A5.87,5.87,0,0,0-475.56,456.26Z" transform="translate(561.74 -279.84)" style="fill:#222f39"/><circle cx="167.24" cy="78.8" r="8.74" style="fill:#92deeb"/><path d="M-394.5,368.39a9.75,9.75,0,0,1-9.74-9.74,9.75,9.75,0,0,1,9.74-9.74,9.75,9.75,0,0,1,9.74,9.74A9.75,9.75,0,0,1-394.5,368.39Zm0-17.48a7.75,7.75,0,0,0-7.74,7.74,7.75,7.75,0,0,0,7.74,7.74,7.75,7.75,0,0,0,7.74-7.74A7.75,7.75,0,0,0-394.5,350.91Z" transform="translate(561.74 -279.84)" style="fill:#222f39"/><path d="M-389.34,390.6a61.51,61.51,0,0,0-61.52,61.51,61.52,61.52,0,0,0,61.52,61.52,61.51,61.51,0,0,0,61.51-61.52A61.51,61.51,0,0,0-389.34,390.6Zm0,103.4a41.88,41.88,0,0,1-41.89-41.89,41.88,41.88,0,0,1,41.89-41.88,41.88,41.88,0,0,1,41.88,41.88A41.88,41.88,0,0,1-389.34,494Z" transform="translate(561.74 -279.84)" style="fill:#f47a54"/><path d="M-389.34,514.63a62.58,62.58,0,0,1-62.52-62.52,62.58,62.58,0,0,1,62.52-62.51,62.58,62.58,0,0,1,62.51,62.51A62.58,62.58,0,0,1-389.34,514.63Zm0-123a60.58,60.58,0,0,0-60.52,60.51,60.59,60.59,0,0,0,60.52,60.52,60.58,60.58,0,0,0,60.51-60.52A60.57,60.57,0,0,0-389.34,391.6Zm0,103.4a42.94,42.94,0,0,1-42.89-42.89,42.94,42.94,0,0,1,42.89-42.88,42.93,42.93,0,0,1,42.88,42.88A42.94,42.94,0,0,1-389.34,495Zm0-83.77a40.93,40.93,0,0,0-40.89,40.88A40.93,40.93,0,0,0-389.34,493a40.93,40.93,0,0,0,40.88-40.89A40.93,40.93,0,0,0-389.34,411.23Z" transform="translate(561.74 -279.84)" style="fill:#222f39"/><path d="M-248.07,569.34h0a14.07,14.07,0,0,1,14,13.32l1.59,13h-31.28l1.59-13A14.07,14.07,0,0,1-248.07,569.34Z" transform="translate(561.74 -279.84)" style="fill:#222f39"/><path d="M-268.68,618.42h0a10.31,10.31,0,0,1,7.48-9.91l3.34-.87a8.28,8.28,0,0,0,6.12-8v-1.12h7.82v.87a8.49,8.49,0,0,0,6.17,8.17l3.37.73a10.3,10.3,0,0,1,7.49,9.91v.18Z" transform="translate(561.74 -279.84)" style="fill:#fff"/><path d="M-269.68,619.42v-1a11.36,11.36,0,0,1,8.21-10.87l3.35-.88a7.29,7.29,0,0,0,5.38-7v-2.12h9.82v1.87a7.5,7.5,0,0,0,5.45,7.2l3.3.73a11.34,11.34,0,0,1,8.28,10.88v1.18Zm18.94-19.91v.12a9.29,9.29,0,0,1-6.85,9l-3.36.88a9.34,9.34,0,0,0-6.67,7.93l39.69,0a9.33,9.33,0,0,0-6.72-8.13l-3.31-.72a9.52,9.52,0,0,1-7-9Z" transform="translate(561.74 -279.84)" style="fill:#222f39"/><path d="M-240,579.87h-15.8V590.7a9.24,9.24,0,0,0,3.12,6.92l1.92,1.69a3.62,3.62,0,0,0,2.43.92h.86a3.65,3.65,0,0,0,2.44-.92l1.91-1.69A9.2,9.2,0,0,0-240,590.7Z" transform="translate(561.74 -279.84)" style="fill:#fff"/><path d="M-247.45,601.23h-.86a4.67,4.67,0,0,1-3.1-1.17l-1.91-1.69a10.23,10.23,0,0,1-3.46-7.67V578.87H-239V590.7a10.26,10.26,0,0,1-3.45,7.67l-1.92,1.69A4.63,4.63,0,0,1-247.45,601.23Zm-7.33-20.36v9.83a8.26,8.26,0,0,0,2.78,6.17l1.92,1.69a2.64,2.64,0,0,0,1.77.67h.86a2.64,2.64,0,0,0,1.78-.67l1.91-1.69A8.22,8.22,0,0,0-241,590.7v-9.83Z" transform="translate(561.74 -279.84)" style="fill:#222f39"/><path d="M-232.88,618.48l-2.78-10.43-3.83-1,.06.58a7.17,7.17,0,0,1-7.12,7.94h-2.07a7.17,7.17,0,0,1-7.1-8.16l.13-.89-4.59,1.82-2.51,10.19Z" transform="translate(561.74 -279.84)" style="fill:#92deeb"/><path d="M-231.58,619.48H-264l2.93-11.92,6.67-2.65-.37,2.58a6.15,6.15,0,0,0,1.46,4.91,6.14,6.14,0,0,0,4.65,2.12h2.07a6.13,6.13,0,0,0,4.58-2,6.19,6.19,0,0,0,1.55-4.78l-.22-2,5.8,1.58Zm-29.83-2h27.23l-2.3-8.62-1.91-.52a8.11,8.11,0,0,1-2.09,5.47,8.17,8.17,0,0,1-6.07,2.71h-2.07a8.15,8.15,0,0,1-6.16-2.81,8.12,8.12,0,0,1-2-5.69l-2.56,1Z" transform="translate(561.74 -279.84)" style="fill:#222f39"/><polygon points="306.56 300.67 317.22 305.21 323.56 307.47 322.75 297.69 306.56 300.67" style="fill:#222f39"/><path d="M-280.19,317.32h0a14.07,14.07,0,0,1,14.05,13.32h0a11.58,11.58,0,0,1-11.5,13h-5.11a11.57,11.57,0,0,1-11.49-13h0A14.07,14.07,0,0,1-280.19,317.32Z" transform="translate(561.74 -279.84)" style="fill:#222f39"/><path d="M-300.8,366.4h0a10.3,10.3,0,0,1,7.48-9.91l3.33-.87a8.28,8.28,0,0,0,6.13-8v-1.13H-276v.88a8.49,8.49,0,0,0,6.17,8.17l3.37.73a10.3,10.3,0,0,1,7.49,9.91v.18Z" transform="translate(561.74 -279.84)" style="fill:#fff"/><path d="M-301.8,367.4v-1a11.35,11.35,0,0,1,8.2-10.86l3.36-.88a7.31,7.31,0,0,0,5.38-7v-2.13H-275v1.88a7.51,7.51,0,0,0,5.44,7.2l3.31.73A11.34,11.34,0,0,1-258,366.17v1.18Zm18.94-19.92v.13a9.3,9.3,0,0,1-6.85,9l-3.36.88a9.33,9.33,0,0,0-6.67,7.93l39.69,0a9.35,9.35,0,0,0-6.72-8.13l-3.31-.72a9.52,9.52,0,0,1-7-9Z" transform="translate(561.74 -279.84)" style="fill:#222f39"/><path d="M-279.71,340.31a9.11,9.11,0,0,1-9.09-9.1,9.1,9.1,0,0,1,9.09-9.09,9.11,9.11,0,0,1,9.1,9.09A9.11,9.11,0,0,1-279.71,340.31Zm0-17.19a8.1,8.1,0,0,0-8.09,8.09,8.1,8.1,0,0,0,8.09,8.1,8.1,8.1,0,0,0,8.1-8.1A8.1,8.1,0,0,0-279.71,323.12Z" transform="translate(561.74 -279.84)" style="fill:#92deeb"/><path d="M-272.1,327.85h-15.8v10.83a9.24,9.24,0,0,0,3.12,6.92l1.91,1.69a3.65,3.65,0,0,0,2.44.92h.86a3.65,3.65,0,0,0,2.44-.92l1.91-1.69a9.25,9.25,0,0,0,3.12-6.92Z" transform="translate(561.74 -279.84)" style="fill:#fff"/><path d="M-279.57,349.21h-.86a4.67,4.67,0,0,1-3.1-1.17l-1.92-1.69a10.26,10.26,0,0,1-3.45-7.67V326.85h17.8v11.83a10.23,10.23,0,0,1-3.46,7.67l-1.91,1.69A4.67,4.67,0,0,1-279.57,349.21Zm-7.33-20.36v9.83a8.22,8.22,0,0,0,2.78,6.17l1.91,1.69a2.64,2.64,0,0,0,1.78.67h.86a2.71,2.71,0,0,0,1.78-.67l1.91-1.69a8.22,8.22,0,0,0,2.78-6.17v-9.83Z" transform="translate(561.74 -279.84)" style="fill:#222f39"/><path d="M-265,366.46-267.78,356l-3.83-1,.06.58a7.17,7.17,0,0,1-7.13,7.94h-2.06a7.17,7.17,0,0,1-7.1-8.17l.12-.88-4.59,1.82-2.5,10.19Z" transform="translate(561.74 -279.84)" style="fill:#f47a54"/><path d="M-263.7,367.46h-32.39l2.93-11.93,6.67-2.64-.36,2.58a6.18,6.18,0,0,0,1.45,4.91,6.16,6.16,0,0,0,4.66,2.12h2.06a6.18,6.18,0,0,0,4.59-2.05,6.15,6.15,0,0,0,1.54-4.78l-.22-2,5.81,1.58Zm-29.83-2h27.23l-2.3-8.62-1.91-.52a8.21,8.21,0,0,1-2.09,5.47,8.19,8.19,0,0,1-6.08,2.71h-2.06a8.17,8.17,0,0,1-6.17-2.81,8.15,8.15,0,0,1-2-5.69l-2.56,1Z" transform="translate(561.74 -279.84)" style="fill:#222f39"/><polygon points="291.24 56 281.74 48.63 272.4 54.72 271.64 46.77 292.61 46.77 291.24 56" style="fill:#222f39"/><path d="M-491,554.19h0a7.36,7.36,0,0,1,5.34-7.07l2.38-.62a5.91,5.91,0,0,0,4.37-5.72V540h5.58v.62a6.06,6.06,0,0,0,4.41,5.83l2.4.53a7.34,7.34,0,0,1,5.35,7.07v.13Z" transform="translate(561.74 -279.84)" style="fill:#fff"/><path d="M-492,555.19v-1a8.39,8.39,0,0,1,6.06-8l2.4-.63a4.94,4.94,0,0,0,3.63-4.75V539h7.58v1.62a5.07,5.07,0,0,0,3.68,4.87l2.35.51a8.4,8.4,0,0,1,6.13,8v1.12ZM-478,541a6.92,6.92,0,0,1-5.1,6.48l-2.4.63a6.37,6.37,0,0,0-4.51,5.1l27.69,0a6.39,6.39,0,0,0-4.56-5.24l-2.35-.51a7.11,7.11,0,0,1-5.18-6.43Z" transform="translate(561.74 -279.84)" style="fill:#222f39"/><path d="M-473.07,525.68H-480a1.84,1.84,0,0,0-1.84,1.84v6.89a6.62,6.62,0,0,0,2.22,4.94l1.37,1.2a2.6,2.6,0,0,0,1.74.66h.62a2.62,2.62,0,0,0,1.74-.66l1.36-1.2a6.59,6.59,0,0,0,2.23-4.94v-6.23A2.51,2.51,0,0,0-473.07,525.68Z" transform="translate(561.74 -279.84)" style="fill:#fff"/><path d="M-475.89,542.21h-.62a3.59,3.59,0,0,1-2.4-.91l-1.37-1.2a7.62,7.62,0,0,1-2.56-5.69v-6.89a2.84,2.84,0,0,1,2.84-2.84h6.93a3.51,3.51,0,0,1,3.51,3.5v6.23a7.63,7.63,0,0,1-2.57,5.69l-1.36,1.2A3.62,3.62,0,0,1-475.89,542.21ZM-480,526.68a.84.84,0,0,0-.84.84v6.89a5.6,5.6,0,0,0,1.89,4.19l1.36,1.21a1.64,1.64,0,0,0,1.08.4h.62a1.59,1.59,0,0,0,1.07-.41l1.37-1.2a5.6,5.6,0,0,0,1.89-4.19v-6.23a1.51,1.51,0,0,0-1.51-1.5Z" transform="translate(561.74 -279.84)" style="fill:#222f39"/><path d="M-473.5,522.77-473,526c2.09.41,2.39,3.7,2.44,4.63a.91.91,0,0,0,.15.48l.8,1.24a4.69,4.69,0,0,1,1-3.42S-468.24,520.81-473.5,522.77Z" transform="translate(561.74 -279.84)" style="fill:#fdca5b"/><path d="M-468.13,536.57l-3.16-4.91a1.86,1.86,0,0,1-.31-1c-.06-1.27-.47-3.47-1.64-3.7l-.69-.14-.67-4.74.75-.28a4,4,0,0,1,4,.31c2.4,1.77,2.23,6.34,2.2,6.85v.36l-.24.26a3.68,3.68,0,0,0-.73,2.62Zm-4-11.31a4.81,4.81,0,0,1,2.3,3.55c.06-.08.11-.16.18-.24,0-1.25-.22-4-1.41-4.82a1.56,1.56,0,0,0-1.31-.25Z" transform="translate(561.74 -279.84)" style="fill:#222f39"/><path d="M-482.35,521.89l.73.5c-3.27,2.41-2.66,6.55-2.66,6.55,1,1,1,3.42,1,3.42l1-1s-.37-2.82,1.47-3.91,3.21-.49,4.74-.49c4.09,0,5.23-1.54,5-3.42-.1-1-1.58-3-5.37-2.93A16.65,16.65,0,0,0-482.35,521.89Z" transform="translate(561.74 -279.84)" style="fill:#fdca5b"/><path d="M-484.3,534.77v-2.41a4.83,4.83,0,0,0-.69-2.71l-.23-.24,0-.32a8.56,8.56,0,0,1,2-6.6l-1.05-.71,1.48-.77a17.36,17.36,0,0,1,6.33-1.38c4.11-.07,6.22,2.2,6.39,3.83a3.61,3.61,0,0,1-.85,2.89c-1,1.1-2.68,1.63-5.18,1.63-.42,0-.83,0-1.25-.07a4.56,4.56,0,0,0-3,.42c-1.24.73-1,2.9-1,2.92l.06.49Zm1-6.24a2.71,2.71,0,0,1,.24.35,3.88,3.88,0,0,1,1.71-2.27,6.35,6.35,0,0,1,4.18-.69c.35,0,.71.06,1.07.06,2.33,0,3.29-.52,3.69-1a1.64,1.64,0,0,0,.35-1.35c-.06-.54-1.25-2.07-4.36-2a18.88,18.88,0,0,0-3.73.54l.27.19-1.13.83A6.19,6.19,0,0,0-483.32,528.53Z" transform="translate(561.74 -279.84)" style="fill:#222f39"/><path d="M-491,554.19h0a7.36,7.36,0,0,1,5.34-7.07l2.38-.62a6.09,6.09,0,0,0,2.29-1.22l4.91,4.68,5.05-4.61a5.87,5.87,0,0,0,2.11,1.08l2.4.53a7.34,7.34,0,0,1,5.35,7.07v.13Z" transform="translate(561.74 -279.84)" style="fill:#fff"/><path d="M-492,555.19v-1a8.39,8.39,0,0,1,6.06-8l2.4-.63a5.1,5.1,0,0,0,1.91-1l.69-.58,4.87,4.65,5-4.55.67.53a5.07,5.07,0,0,0,1.76.9l2.35.51a8.4,8.4,0,0,1,6.13,8v1.12Zm10.93-8.6a7.24,7.24,0,0,1-1.94.87l-2.4.63a6.37,6.37,0,0,0-4.51,5.1l27.69,0a6.39,6.39,0,0,0-4.56-5.24l-2.35-.51a7.55,7.55,0,0,1-1.81-.78l-5.15,4.7Z" transform="translate(561.74 -279.84)" style="fill:#222f39"/><rect width="370" height="370" style="fill:none"/></svg>