<?xml version="1.0" encoding="utf-8"?>
<!-- Generator: Adobe Illustrator 20.1.0, SVG Export Plug-In . SVG Version: 6.00 Build 0)  -->
<svg version="1.1"
	 id="svg2" inkscape:version="0.91 r13725" sodipodi:docname="actions.svg" xmlns:cc="http://creativecommons.org/ns#" xmlns:dc="http://purl.org/dc/elements/1.1/" xmlns:inkscape="http://www.inkscape.org/namespaces/inkscape" xmlns:rdf="http://www.w3.org/1999/02/22-rdf-syntax-ns#" xmlns:sodipodi="http://sodipodi.sourceforge.net/DTD/sodipodi-0.dtd" xmlns:svg="http://www.w3.org/2000/svg"
	 xmlns="http://www.w3.org/2000/svg" xmlns:xlink="http://www.w3.org/1999/xlink" x="0px" y="0px" width="17px" height="180px"
	 viewBox="0 0 17 180" style="enable-background:new 0 0 17 180;" xml:space="preserve">
<style type="text/css">
	.st0{fill:#585759;}
	.st1{fill:#59585A;}
	.st2{fill:#00A4F8;}
</style>
<sodipodi:namedview  bordercolor="#666666" borderopacity="1" fit-margin-bottom="0" fit-margin-left="0" fit-margin-right="0" fit-margin-top="0" gridtolerance="10" guidetolerance="10" id="namedview24" inkscape:current-layer="svg2" inkscape:cx="-24.623114" inkscape:cy="51.645214" inkscape:pageopacity="0" inkscape:pageshadow="2" inkscape:window-height="987" inkscape:window-maximized="1" inkscape:window-width="1680" inkscape:window-x="-8" inkscape:window-y="-8" inkscape:zoom="6.8900085" objecttolerance="10" pagecolor="#ffffff" showgrid="false">
	</sodipodi:namedview>
<path id="path14" inkscape:connector-curvature="0" class="st0" d="M14.5,122.6c-1.5-1.6-3.7-2.6-6-2.6c-4.7,0-8.5,3.8-8.5,8.5
	s3.8,8.5,8.5,8.5c3.9,0,7.2-2.8,8.2-6.4h-2.2c-0.9,2.4-3.2,4.3-6,4.3c-3.5,0-6.4-2.9-6.4-6.4c0-3.5,2.9-6.4,6.4-6.4
	c1.8,0,3.3,0.7,4.5,1.9l-3.4,3.4H17V120L14.5,122.6"/>
<path id="path22" inkscape:connector-curvature="0" class="st0" d="M13,48.5L0,40v17L13,48.5z"/>
<rect id="rect4143" y="80" class="st1" width="4" height="17"/>
<rect id="rect4145" x="8" y="80" class="st1" width="4" height="17"/>
<g id="g4155" transform="matrix(3.3018522,0,0,3.3018522,0.05282964,-157.87384)">
	<path id="path4144" inkscape:connector-curvature="0" class="st2" d="M0,49.4v2.4c0,0,0,0.2,0.1,0.3c0.1,0.1,0.3,0.1,0.3,0.1h4.4
		c0,0,0.2,0,0.3-0.1s0.1-0.3,0.1-0.3V49H3.1l-0.5,0.3L0,49.4L0,49.4z"/>
	<path id="path4146" inkscape:connector-curvature="0" class="st2" d="M2.6,49H0.2v-0.7c0,0,0-0.2,0.2-0.4s0.4-0.1,0.4-0.1h2.3v0.3
		h1.8v0.6H3.1L2.6,49z"/>
</g>
<g>
	<path class="st0" d="M16.6,174c0-0.1,0-0.1,0.1-0.2c0.2-0.7,0.3-2,0.3-2c0.1-2.3-0.7-4.7-2.5-6.4c-1.8-1.8-4.3-2.7-6.6-2.5l0,0
		c-1.9,0.1-3.7,0.9-5.1,2.2c0,0,0,0,0,0l0,0c-1.7,1.6-2.8,3.8-2.8,6.4c0,2.6,1.2,4.9,3,6.5l0,0c3.3,3,8.4,2.8,11.5-0.4
		c0.9-0.9,1.6-2,2-3.2C16.6,174.2,16.6,174.1,16.6,174z M2,171.4c0-3,2.1-5.5,4.6-6.3c0.2-0.1,0.4-0.1,0.7-0.2c0.1,0,0.3,0,0.4-0.1
		c1.9-0.2,3.8,0.4,5.3,1.8c2,2,2.5,5.1,1.3,7.6c-0.1,0.1-0.1,0.2-0.2,0.4c0,0,0,0,0,0c-1.1,1.9-3.2,3.2-5.5,3.2
		C5,177.9,2,175,2,171.4z"/>
	<polygon class="st0" points="13.4,172.5 7.8,172.5 7.8,166.4 9.3,166.4 9.3,171 13.4,171 	"/>
	<path class="st0" d="M7.9,161.8c0.9-0.1,1.9,0,2.8,0.3c0,0,0,0,0-0.1c0-1.1-0.9-2-2-2c-1.1,0-2,0.9-2,2
		C7.1,161.9,7.5,161.8,7.9,161.8z"/>
</g>
</svg>
