<?xml version="1.0" encoding="UTF-8" standalone="no"?>
<svg
   xmlns:dc="http://purl.org/dc/elements/1.1/"
   xmlns:cc="http://creativecommons.org/ns#"
   xmlns:rdf="http://www.w3.org/1999/02/22-rdf-syntax-ns#"
   xmlns:svg="http://www.w3.org/2000/svg"
   xmlns="http://www.w3.org/2000/svg"
   xmlns:sodipodi="http://sodipodi.sourceforge.net/DTD/sodipodi-0.dtd"
   xmlns:inkscape="http://www.inkscape.org/namespaces/inkscape"
   viewBox="-259 389.9 211.99998 76"
   width="212"
   id="svg2"
   version="1.1"
   inkscape:version="0.91 r13725"
   sodipodi:docname="checkbox.svg"
   height="76">
  <metadata
     id="metadata38">
    <rdf:RDF>
      <cc:Work
         rdf:about="">
        <dc:format>image/svg+xml</dc:format>
        <dc:type
           rdf:resource="http://purl.org/dc/dcmitype/StillImage" />
        <dc:title></dc:title>
      </cc:Work>
    </rdf:RDF>
  </metadata>
  <defs
     id="defs36" />
  <sodipodi:namedview
     pagecolor="#ffffff"
     bordercolor="#666666"
     borderopacity="1"
     objecttolerance="10"
     gridtolerance="10"
     guidetolerance="10"
     inkscape:pageopacity="0"
     inkscape:pageshadow="2"
     inkscape:window-width="1680"
     inkscape:window-height="987"
     id="namedview34"
     showgrid="false"
     fit-margin-top="0"
     fit-margin-left="0"
     fit-margin-right="0"
     fit-margin-bottom="0"
     inkscape:zoom="20"
     inkscape:cx="183.60447"
     inkscape:cy="18.407129"
     inkscape:window-x="-8"
     inkscape:window-y="-8"
     inkscape:window-maximized="1"
     inkscape:current-layer="svg2" />
  <rect
     style="fill:#ffffff;fill-opacity:1;stroke:none;stroke-width:1.00005794;stroke-opacity:1"
     id="rect4144-8-3"
     width="15.999997"
     height="15.999414"
     x="-219"
     y="409.90057" />
  <rect
     style="fill:#ffffff;fill-opacity:1;stroke:none;stroke-width:1.00005794;stroke-opacity:1"
     id="rect4144-8-2"
     width="15.999996"
     height="15.999414"
     x="-199"
     y="409.90057" />
  <rect
     style="fill:#ffffff;fill-opacity:1;stroke:none;stroke-width:1.00005794;stroke-opacity:1"
     id="rect4144-8"
     width="15.999996"
     height="15.999993"
     x="-199"
     y="389.89999" />
  <rect
     style="fill:#ffffff;fill-opacity:1;stroke:none;stroke-width:1.00005794;stroke-opacity:1"
     id="rect4144-4"
     width="15.997681"
     height="15.999331"
     x="-218.99768"
     y="389.89996" />
  <rect
     style="fill:#ffffff;fill-opacity:1;stroke:none;stroke-width:1.00005794;stroke-opacity:1"
     id="rect4144"
     width="16"
     height="15.999331"
     x="-259"
     y="389.89996" />
  <path
     style="fill:#00a4f8"
     d="m -252.7,399.39955 5.99999,-5.99974 1.5,1.39994 -7.49999,7.59968 -3.50001,-3.59985 1.6,-1.39994 z"
     id="path8"
     inkscape:connector-curvature="0" />
  <path
     style="fill:#00a4f8"
     d="m -244.00001,390.89997 0,14 -14,0 0,-14 14,0 m 1,-1 -16,0 0,16 16,0 0,-16 z"
     id="path10"
     inkscape:connector-curvature="0" />
  <path
     inkscape:connector-curvature="0"
     id="path12"
     d="m -232.70001,399.39997 6,-5.99999 1.5,1.4 -7.5,7.59999 -3.5,-3.6 1.59999,-1.4 z" />
  <path
     inkscape:connector-curvature="0"
     id="path14"
     d="m -224.00001,390.89997 0,14 -14,0 0,-14 14,0 m 1,-1 -16,0 0,16 16,0 0,-16 z" />
  <path
     inkscape:connector-curvature="0"
     id="path16"
     d="m -224.00001,410.89998 0,13.99998 -14,0 0,-13.99998 14,0 m 1,-1.00001 -16,0 0,16 16,0 0,-16 z" />
  <path
     style="fill:#b6b7b7;fill-opacity:1"
     d="m -212.6986,399.39955 5.99912,-5.99974 1.49979,1.39994 -7.49891,7.59968 -3.4995,-3.59985 1.59977,-1.39994 z"
     id="path20"
     inkscape:connector-curvature="0" />
  <path
     style="fill:#b6b7b7;fill-opacity:1"
     d="m -204,390.89997 0,14 -14.00001,0 0,-14 14.00001,0 m 0.99999,-1 -16,0 0,16 16,0 0,-16 z"
     id="path22"
     inkscape:connector-curvature="0" />
  <path
     style="fill:#b6b7b7;fill-opacity:1"
     d="m -204.00001,410.89999 0,13.99998 -14,0 0,-13.99998 14,0 m 1,-1.00001 -16,0 0,16 16,0 0,-16 z"
     id="path24"
     inkscape:connector-curvature="0" />
  <path
     d="m -184.00001,410.89999 0,13.99998 -14,0 0,-13.99998 14,0 m 1,-1.00001 -16,0 0,16 16,0 0,-16 z"
     id="path26"
     inkscape:connector-curvature="0"
     style="fill:#db5155;fill-opacity:1" />
  <path
     d="m -192.69601,399.39996 5.99999,-5.99999 1.50001,1.4 -7.5,7.59999 -3.5,-3.6 1.6,-1.39999 z"
     id="path28"
     inkscape:connector-curvature="0"
     style="fill:#db5155;fill-opacity:1" />
  <path
     d="m -184.00001,390.89997 0,13.99999 -14,0 0,-13.99999 14,0 m 1,-1.00001 -16,0 0,16 16,0 0,-16 z"
     id="path30"
     inkscape:connector-curvature="0"
     style="fill:#db5155;fill-opacity:1" />
  <path
     d="m -244.00001,410.89998 0,13.99998 -14,0 0,-13.99998 14,0 m 1,-1.00001 -16,0 0,16 16,0 0,-16 z"
     id="path32"
     inkscape:connector-curvature="0"
     style="fill:#d7e8ed" />
  <style
     id="style3350"
     type="text/css">
	.st0{fill:#FFFFFF;}
	.st1{fill:#16A4FA;}
</style>
  <g
     id="g3352"
     transform="translate(-239.00001,433.89997)">
    <rect
       style="fill:#ffffff"
       x="0.5"
       y="0.5"
       class="st0"
       width="11"
       height="11"
       id="rect3354" />
    <path
       style="fill:#16a4fa"
       inkscape:connector-curvature="0"
       class="st1"
       d="M 11,1 11,11 1,11 1,1 11,1 M 12,0 0,0 0,12 12,12 12,0 12,0 Z"
       id="path3356" />
  </g>
  <rect
     style="fill:#16a4fa"
     x="-236"
     y="436.89999"
     class="st1"
     width="6"
     height="6"
     id="rect3358" />
  <path
     d="m -247.75002,434.64998 0,10.49999 -10.49999,0 0,-10.49999 10.49999,0 m 0.75001,-0.75001 -12,0 0,12 12,0 0,-12 z"
     id="path32-5"
     inkscape:connector-curvature="0"
     style="fill:#d7e8ed" />
  <rect
     style="fill:#ffffff;fill-opacity:1;stroke:none;stroke-width:1.00005794;stroke-opacity:1"
     id="rect4144-2"
     width="12"
     height="11.999977"
     x="-219"
     y="433.90002" />
  <path
     style="fill:#00a4f8"
     d="m -214.275,441.02497 4.49999,-4.49999 1.125,1.05 -5.62499,5.69999 -2.62501,-2.7 1.2,-1.04999 z"
     id="path8-6"
     inkscape:connector-curvature="0" />
  <path
     style="fill:#00a4f8"
     d="m -207.75001,434.64998 0,10.49998 -10.5,0 0,-10.49998 10.5,0 m 0.75,-0.74999 -12,0 0,11.99997 12,0 0,-11.99997 z"
     id="path10-2"
     inkscape:connector-curvature="0" />
  <path
     style="fill:#00a4f8"
     d="m -244.00001,410.89997 0,14 -14,0 0,-14 14,0 m 1,-1 -16,0 0,16 16,0 0,-16 z"
     id="path10-6"
     inkscape:connector-curvature="0" />
  <path
     style="fill:#00a4f8"
     d="m -247.75001,434.64997 0,10.5 -10.5,0 0,-10.5 10.5,0 m 0.75,-0.75 -12,0 0,12 12,0 0,-12 z"
     id="path10-6-8"
     inkscape:connector-curvature="0" />
  <rect
     style="opacity:0.5;fill:#ffffff;fill-opacity:1;stroke:none;stroke-width:1.00005794;stroke-opacity:1"
     id="rect4144-5"
     width="12"
     height="11.999488"
     x="-199"
     y="433.89999" />
  <path
     style="opacity:1;fill:#e1edf1;fill-opacity:1"
     d="m -187.75,434.64998 0,10.49998 -10.50001,0 0,-10.49998 10.50001,0 m 0.74999,-0.75001 -12,0 0,12 12,0 0,-12 z"
     id="path10-5"
     inkscape:connector-curvature="0" />
  <rect
     style="opacity:1;fill:#ffffff;fill-opacity:1;stroke:none;stroke-width:1.00005794;stroke-opacity:1"
     id="rect4144-5-9"
     width="12"
     height="11.999488"
     x="-179"
     y="433.89999" />
  <path
     style="opacity:1;fill:#e1edf1;fill-opacity:1"
     d="m -174.275,441.02466 4.49999,-4.4998 1.125,1.04995 -5.62499,5.69975 -2.62501,-2.69988 1.2,-1.04995 z"
     id="path8-9-8"
     inkscape:connector-curvature="0" />
  <path
     style="opacity:1;fill:#e1edf1;fill-opacity:1"
     d="m -167.75,434.64998 0,10.49998 -10.50001,0 0,-10.49998 10.50001,0 m 0.74999,-0.75001 -12,0 0,12 12,0 0,-12 z"
     id="path10-5-1"
     inkscape:connector-curvature="0" />
  <style
     id="style4167"
     type="text/css">
	.st0{fill:#00A4F8;}
</style>
  <g
     id="g4169"
     transform="translate(-259.00001,453.89999)">
    <path
       style="fill:#00a4f8"
       inkscape:connector-curvature="0"
       class="st0"
       d="m 6,1 c 2.8,0 5,2.2 5,5 0,2.8 -2.2,5 -5,5 C 3.2,11 1,8.8 1,6 1,3.2 3.2,1 6,1 M 6,0 C 2.7,0 0,2.7 0,6 0,9.3 2.7,12 6,12 9.3,12 12,9.3 12,6 12,2.7 9.3,0 6,0 l 0,0 z"
       id="path4171" />
  </g>
  <g
     id="g4173"
     transform="translate(-239.00001,440.79999)">
    <path
       style="fill:#00a4f8"
       inkscape:connector-curvature="0"
       class="st0"
       d="m 6,14.1 c 2.8,0 5,2.2 5,5 0,2.8 -2.2,5 -5,5 -2.8,0 -5,-2.2 -5,-5 0,-2.8 2.2,-5 5,-5 m 0,-1 c -3.3,0 -6,2.7 -6,6 0,3.3 2.7,6 6,6 3.3,0 6,-2.7 6,-6 0,-3.3 -2.7,-6 -6,-6 l 0,0 z"
       id="path4175" />
  </g>
  <circle
     style="fill:#00a4f8"
     class="st0"
     cx="-233"
     cy="459.89999"
     r="3"
     id="circle4177" />
  <path
     inkscape:connector-curvature="0"
     id="path16-4"
     d="m -147.75001,434.65 0,10.49998 -10.5,0 0,-10.49998 10.5,0 m 0.75,-0.75001 -12,0 0,12 12,0 0,-12 z" />
  <path
     inkscape:connector-curvature="0"
     id="path12-2"
     d="m -134.27501,441.02499 4.5,-4.49999 1.125,1.05 -5.625,5.69999 -2.625,-2.7 1.19999,-1.05 z" />
  <path
     inkscape:connector-curvature="0"
     id="path14-2"
     d="m -127.75001,434.64999 0,10.5 -10.5,0 0,-10.5 10.5,0 m 0.75,-0.75 -12,0 0,12 12,0 0,-12 z" />
  <rect
     id="rect3354-4"
     height="11"
     width="11"
     class="st0"
     y="434.39999"
     x="-118.50001"
     style="fill:#ffffff" />
  <path
     id="path3356-5"
     d="m -108.00001,434.89999 0,10 -10,0 0,-10 10,0 m 1,-1 -12,0 0,12 12,0 0,-12 0,0 z"
     class="st1"
     inkscape:connector-curvature="0"
     style="fill:#000000;fill-opacity:1" />
  <rect
     style="fill:#000000;fill-opacity:1"
     x="-116.00011"
     y="436.90005"
     class="st1"
     width="6"
     height="6"
     id="rect3358-5" />
  <rect
     style="fill:#ffffff;fill-opacity:1;stroke:none;stroke-width:1.00005794;stroke-opacity:1"
     id="rect4144-4-4"
     width="11.998258"
     height="11.999498"
     x="-98.998268"
     y="433.89999" />
  <path
     style="fill:#b6b7b7;fill-opacity:1"
     d="m -87.750011,434.64999 0,10.5 -10.500005,0 0,-10.5 10.500005,0 m 0.749992,-0.75 -11.999997,0 0,12 11.999997,0 0,-12 z"
     id="path22-3"
     inkscape:connector-curvature="0" />
  <rect
     style="fill:#ffffff;fill-opacity:1;stroke:none;stroke-width:1.00005794;stroke-opacity:1"
     id="rect4144-4-4-1"
     width="11.998258"
     height="11.999498"
     x="-78.998268"
     y="433.90002" />
  <path
     style="fill:#b6b7b7;fill-opacity:1"
     d="m -74.273966,441.02467 4.49934,-4.4998 1.12484,1.04995 -5.62418,5.69976 -2.62462,-2.69988 1.19983,-1.04996 z"
     id="path20-7-9"
     inkscape:connector-curvature="0" />
  <path
     style="fill:#b6b7b7;fill-opacity:1"
     d="m -67.750016,434.64999 0,10.5 -10.5,0 0,-10.5 10.5,0 m 0.74999,-0.75 -11.99999,0 0,12 11.99999,0 0,-12 z"
     id="path22-3-6"
     inkscape:connector-curvature="0" />
  <rect
     id="rect3354-4-2"
     height="11"
     width="11"
     class="st0"
     y="434.39999"
     x="-58.499996"
     style="fill:#ffffff" />
  <path
     id="path3356-5-7"
     d="m -48.000016,434.89999 0,10 -10,0 0,-10 10,0 m 1,-1 -12,0 0,12 12,0 0,-12 0,0 z"
     class="st1"
     inkscape:connector-curvature="0"
     style="fill:#b6b7b7;fill-opacity:1" />
  <rect
     style="fill:#b6b7b7;fill-opacity:1"
     x="-56.000118"
     y="436.90005"
     class="st1"
     width="6"
     height="6"
     id="rect3358-5-6" />
</svg>
