<?xml version="1.0" encoding="utf-8"?>
<!-- Generator: Adobe Illustrator 19.2.1, SVG Export Plug-In . SVG Version: 6.00 Build 0)  -->
<svg version="1.1"
	 id="svg2" inkscape:version="0.91 r13725" sodipodi:docname="elements.svg" xmlns:cc="http://creativecommons.org/ns#" xmlns:dc="http://purl.org/dc/elements/1.1/" xmlns:inkscape="http://www.inkscape.org/namespaces/inkscape" xmlns:rdf="http://www.w3.org/1999/02/22-rdf-syntax-ns#" xmlns:sodipodi="http://sodipodi.sourceforge.net/DTD/sodipodi-0.dtd" xmlns:svg="http://www.w3.org/2000/svg"
	 xmlns="http://www.w3.org/2000/svg" xmlns:xlink="http://www.w3.org/1999/xlink" x="0px" y="0px" width="91px" height="454px"
	 viewBox="0 0 91 454" style="enable-background:new 0 0 91 454;" xml:space="preserve">
<style type="text/css">
	.st0{fill:#585759;}
	.st1{fill:#16A2F7;}
	.st2{fill:#2B3A4D;}
	.st3{fill:#FFFFFF;}
	.st4{fill:#16A3F8;}
	.st5{fill:#FDE3E3;}
	.st6{fill:#CFA6A9;}
	.st7{fill:#19191A;}
	.st8{fill:#FFEBEB;}
	.st9{opacity:0.7;fill:#FDE3E3;enable-background:new    ;}
	.st10{fill:#9C9C9D;}
	.st11{fill:#F5FBFF;}
	.st12{fill:#D0EDFE;}
	.st13{fill:#9D9D9D;}
	.st14{fill:#00A4F8;}
	.st15{opacity:0.7;enable-background:new    ;}
	.st16{opacity:0.7;fill:#5A585A;enable-background:new    ;}
	.st17{opacity:0.7;fill:#CE4141;enable-background:new    ;}
	.st18{opacity:0.7;fill:#00A4F8;enable-background:new    ;}
	.st19{fill:#7B848F;fill-opacity:0.9412;}
	.st20{fill:#A3A3A3;}
	.st21{fill:#FF7800;}
	.st22{fill:#868486;}
</style>
<sodipodi:namedview  bordercolor="#666666" borderopacity="1" fit-margin-bottom="0" fit-margin-left="0" fit-margin-right="0" fit-margin-top="0" gridtolerance="10" guidetolerance="10" id="namedview22" inkscape:current-layer="svg2" inkscape:cx="57.619723" inkscape:cy="48.279262" inkscape:guide-bbox="true" inkscape:pageopacity="0" inkscape:pageshadow="2" inkscape:window-height="987" inkscape:window-maximized="1" inkscape:window-width="1680" inkscape:window-x="-8" inkscape:window-y="-8" inkscape:zoom="5.1304345" objecttolerance="10" pagecolor="#ffffff" showgrid="false" showguides="true">
	</sodipodi:namedview>
<g id="g4" transform="matrix(0.83333333,0,0,0.83333333,0,0.56665802)">
	<path id="path6" inkscape:connector-curvature="0" class="st0" d="M5,0h2v12H5V0z"/>
	<path id="path8" inkscape:connector-curvature="0" class="st0" d="M0,5h12v2H0V5z"/>
</g>
<path id="path12" inkscape:connector-curvature="0" class="st1" d="M9.3,25.6l1.7,1.5l-5.6,5.5L0,27.1l1.7-1.5l3.8,3.8L9.3,25.6z"/>
<path id="path14" inkscape:connector-curvature="0" class="st1" d="M11,51l-1.7,1.5l-3.8-3.8l-3.8,3.9L0,51.1l5.5-5.5L11,51z"/>
<path id="path18" inkscape:connector-curvature="0" class="st2" d="M3.2,69.6v-6.1L0,63.4l4-3.8l4,3.8H4.9v6.2H3.2z"/>
<path id="path20" inkscape:connector-curvature="0" class="st2" d="M4.8,79.6v6.1H8l-4,3.8l-4-3.8h3.1v-6.2L4.8,79.6L4.8,79.6z"/>
<polygon id="polygon71" class="st3" points="0,110.2 1,109.3 2.3,110.6 6.3,106.6 7.3,107.5 2.3,112.6 "/>
<polygon id="polygon69" points="26.3,109.5 23.1,112.6 20,109.5 21,108.6 23.2,110.8 25.3,108.6 "/>
<polygon id="polygon69-8" points="40,111.7 43.2,108.6 46.3,111.7 45.3,112.6 43.1,110.4 41,112.6 "/>
<path id="path12-0" inkscape:connector-curvature="0" class="st3" d="M69.3,105.6l1.7,1.5l-5.6,5.5l-5.4-5.5l1.7-1.5l3.8,3.8
	L69.3,105.6z"/>
<path id="path14-8" inkscape:connector-curvature="0" class="st3" d="M91,111l-1.7,1.5l-3.8-3.8l-3.8,3.9l-1.7-1.5l5.5-5.5L91,111z"
	/>
<polygon id="polygon5" class="st4" points="1.4,127.9 3.3,129.8 9.7,123.6 11.1,125.1 3.4,132.6 0,129.4 "/>
<polygon id="polygon4150" class="st5" points="0,156.2 7,162.6 7,149.6 "/>
<polygon id="polygon4152" class="st6" points="1.5,156.2 6,160.3 6,161.7 0,156.2 6.1,150.5 6.1,151.8 "/>
<polygon id="polygon4150-4" class="st5" points="10,162.6 10,149.6 17,156.2 "/>
<polygon id="polygon4152-4" class="st6" points="10.9,150.5 10.9,151.8 15.5,156.2 11,160.3 11,161.7 17,156.2 "/>
<path id="path3359" inkscape:connector-curvature="0" class="st7" d="M28,194.6h-8l4,5L28,194.6z"/>
<path id="path3359-6" inkscape:connector-curvature="0" class="st7" d="M0,194.6v8l5-4L0,194.6z"/>
<polygon id="polygon4167" class="st3" points="0,222.6 5.5,216.6 11,222.6 "/>
<polygon id="polygon4169" class="st0" points="7.8,235.5 1,242.6 0.1,241.7 6.9,234.6 "/>
<polygon id="polygon4171" class="st0" points="0.9,234.9 8,241.7 7.1,242.6 0,235.8 "/>
<polygon id="polygon4167-6" class="st8" points="25.5,216.6 31,222.6 20,222.6 "/>
<g id="g4161-3-8" transform="matrix(0,0.85714286,0.84615385,0,20,216.56665)">
	<polygon id="polygon4150-4-7" class="st9" points="7,0 0,6.6 7,13 	"/>
	<polygon id="polygon4152-4-2" class="st6" points="6,12.1 0,6.6 6.1,0.9 6.1,2.2 1.5,6.6 6,10.7 	"/>
</g>
<path id="path3359-4" inkscape:connector-curvature="0" class="st7" d="M70,193.6H60l5,6L70,193.6z"/>
<path id="path3359-6-6" inkscape:connector-curvature="0" class="st7" d="M40,192.6v10l6-5L40,192.6z"/>
<g>
	<g id="g3375" transform="translate(0,248.86665)">
		<path id="path3377" inkscape:connector-curvature="0" class="st10" d="M6.9,25.3c0,0,0.1-0.1,0.3,0c0.1,0.1,0.1,0.3,0.1,0.3
			l-0.8,4.6c0,0,0,0.5,0.6,0.8c0.8,0.3,1.6-0.3,1.6-0.3l1.1-0.8c0,0,0.1-0.1,0-0.3c-0.1-0.1-0.3,0-0.3,0L8.9,30c0,0-0.2,0.1-0.3,0
			s-0.1-0.3-0.1-0.3l0.8-4.6c0,0,0.1-0.5-0.4-0.7c-0.5-0.3-0.9-0.1-1.2,0C7.3,24.5,6,25.5,6,25.5s-0.3-0.1-0.1,0.1
			c0.1,0.2,0.3,0.1,0.3,0.1L6.9,25.3z"/>
		<circle id="circle3379" class="st10" cx="8.8" cy="22.2" r="1.1"/>
	</g>
	<g id="g3381" transform="translate(0,248.86665)">
		<path id="path3383" inkscape:connector-curvature="0" class="st10" d="M8,19.3c3.7,0,6.8,3.1,6.8,6.8s-3.1,6.8-6.8,6.8
			s-6.8-3.1-6.8-6.8S4.3,19.3,8,19.3 M8,18.1c-4.4,0-8,3.6-8,8s3.6,8,8,8s8-3.6,8-8S12.4,18.1,8,18.1L8,18.1z"/>
	</g>
</g>
<polygon id="polygon3385" class="st11" points="47,222.6 47,209.6 40,216.2 "/>
<polygon id="polygon3387" class="st12" points="46,220.3 46,221.7 40,216.2 46.1,210.5 46.1,211.8 41.5,216.2 "/>
<polygon id="polygon4150-4-5" class="st5" points="20,155.6 33,155.6 26.4,162.6 "/>
<polygon id="polygon4152-4-9" class="st6" points="22.3,156.6 20.9,156.6 26.4,162.6 32.1,156.5 30.8,156.5 26.4,161.1 "/>
<path id="path14-3" inkscape:connector-curvature="0" class="st1" d="M51,31l-1.7,1.5l-3.8-3.8l-3.8,3.9L40,31.1l5.5-5.5L51,31z"/>
<path id="path4157" inkscape:connector-curvature="0" inkscape:transform-center-x="-0.38983053" inkscape:transform-center-y="17.542374" class="st13" d="
	M74,70l-1.4-1.4L67,74.2l-5.6-5.6L60,70l5.6,5.6L60,81.2l1.4,1.4L67,77l5.6,5.6l1.4-1.4l-5.6-5.6L74,70z"/>
<path id="path8-6" inkscape:connector-curvature="0" class="st14" d="M3.2,299.9l5.5-5.5l1.4,1.3l-6.9,6.9L0,299.3l1.5-1.3
	L3.2,299.9z"/>
<g id="g4182" transform="translate(307,-182.33335)" class="st15">
	<polygon id="polygon4184" class="st3" points="-276.2,416.9 -269,424.1 -269.9,424.9 -277,417.7 	"/>
	<polygon id="polygon4186" class="st3" points="-269.8,416.9 -269,417.7 -276.2,424.9 -277,424.1 	"/>
</g>
<g id="g4199" transform="matrix(0.625,0,0,0.625,230.625,-247.49585)">
	<circle id="circle4186" class="st16" cx="-271" cy="398.9" r="2"/>
	<circle id="circle4188" class="st16" cx="-265" cy="398.9" r="2"/>
	<circle id="circle4190" class="st16" cx="-259" cy="398.9" r="2"/>
</g>
<path id="path4191" inkscape:connector-curvature="0" class="st17" d="M40.1,281.9c-0.2-0.6,0.2-1.3,0.2-1.3l6.5-10.9
	c0,0,0.6-1.1,1.1-1.1c0.7,0,1.3,1.1,1.3,1.1l6.6,11.1c0,0,0.4,0.6,0.2,1.2s-0.8,0.6-0.8,0.6H40.9C40.9,282.5,40.3,282.7,40.1,281.9
	L40.1,281.9z"/>
<circle id="circle4193" class="st3" cx="48" cy="280.1" r="0.8"/>
<path id="path4195" inkscape:connector-curvature="0" class="st3" d="M48,277.8L48,277.8c-0.5,0-0.8-0.3-0.8-0.9v-4.3
	c0-0.4,0.3-0.9,0.8-0.9l0,0c0.4,0,0.8,0.3,0.8,0.9v4.3C48.7,277.4,48.4,277.8,48,277.8z"/>
<path id="path8-6-2" inkscape:connector-curvature="0" class="st3" d="M1.6,321.3l2.7-2.7l0.7,0.6l-3.4,3.4L0,321l0.7-0.6L1.6,321.3
	L1.6,321.3z"/>
<g>
	<path id="path4196" inkscape:connector-curvature="0" class="st18" d="M0,336v5.9c0,0,0,0.5,0.3,0.8c0.3,0.2,0.9,0.2,0.9,0.2h11.6
		c0,0,0.5,0,0.8-0.3s0.4-0.8,0.4-0.8V335H8.3l-1.2,1H0L0,336z"/>
	<path id="path4198" inkscape:connector-curvature="0" class="st18" d="M6.9,335H1v-2.4c0,0,0-1,0.4-1.3s1.3-0.3,1.3-0.3H8v1.3h5
		v1.6H8.4L6.9,335L6.9,335z"/>
</g>
<path id="path4200" inkscape:connector-curvature="0" class="st18" d="M6,350.6h5.3H1.7c-0.9,0-1.7,0.8-1.7,1.7v8.6
	c0,0.9,0.8,1.7,1.7,1.7h9.6c0.9,0,1.7-0.8,1.7-1.7v-3.3h-2v3H2v-8h4V350.6L6,350.6L6,350.6z"/>
<path id="path4202" inkscape:connector-curvature="0" class="st18" d="M5.6,359.1c-0.3,0-0.5-0.1-0.7-0.3c-0.4-0.4-0.4-1,0-1.4
	l6.3-6.3c0.4-0.4,1-0.4,1.4,0s0.4,1,0,1.4l-6.3,6.3C6.1,359,5.8,359.1,5.6,359.1z"/>
<path id="path4204" inkscape:connector-curvature="0" class="st18" d="M12,356.6c-0.6,0-1-0.4-1-1v-3H8c-0.6,0-1-0.4-1-1s0.4-1,1-1
	h5v5C13,356.2,12.5,356.6,12,356.6z"/>
<polygon id="polygon4169-2" class="st19" points="67.8,235.5 61,242.6 60.1,241.7 66.9,234.6 "/>
<polygon id="polygon4171-9" class="st19" points="60.9,234.9 68,241.7 67.1,242.6 60,235.8 "/>
<g id="g4204" transform="translate(-0.5,371.06665)" class="st15">
	<polygon id="polygon4206" class="st20" points="10.3,11.5 0.5,1.6 1.6,0.5 11.5,10.4 	"/>
	<polygon id="polygon4208" class="st20" points="1.6,11.5 0.5,10.4 10.4,0.5 11.5,1.6 	"/>
</g>
<g id="g68" transform="translate(0,0.56665421)">
	<path id="path70" inkscape:connector-curvature="0" class="st2" d="M12.7,407.9c-0.7,1.7-2.1,3-3.9,3.4c-4.5,1.1-6.6-0.5-6.6-0.5
		c-0.3,0-0.6,0.3-0.5,0.6l0,0c0,0.5,0.3,0.9,0.8,0.9h0.1c0,0,6.4,0.3,8.7,0c1.4,0,2.7-0.3,3.9-1c0.8-0.5,1.5-1.2,2-2
		c1.3-2.2,2.4-2.2,2.3-2.6s-0.2-2.9-3.6-2.7C14.3,404.2,13.1,406.6,12.7,407.9L12.7,407.9z"/>
	<path id="path72" inkscape:connector-curvature="0" class="st2" d="M10.8,408.3C8.7,411.8-1,411,0.1,403.4c1.2-8.8,13.5-6.7,14.9-1
		c0.1,0.2-0.8,0-1.4,1.4c-0.3,0.7-0.7-1.4-2.2-2.7c-2.3-2-8.7-2.6-9.2,2.7c-0.5,4.9,5.7,5.8,7.1,3.6c2.8-4.2-2.6-5.7-3.7-4
		c-1,1.4,0.3,2.8,1.1,2.4c0.4-0.2-0.6-1.6,0.8-1.8c0.9-0.2,1.3,1.4,1,1.9c-1.5,3-5.9,0.4-4.7-2.8C5.4,399.1,15.2,401.1,10.8,408.3
		L10.8,408.3z"/>
	<polygon id="polygon74" class="st2" points="17.1,400.4 17.9,400.6 16.8,404.5 16,404.3 	"/>
	<polygon id="polygon76" class="st2" points="20.8,402.2 21.4,402.7 18.7,405.7 18.1,405.2 	"/>
	<circle id="ellipse78" class="st2" cx="17.6" cy="400.3" r="0.8"/>
	
		<ellipse id="ellipse80" transform="matrix(0.2027 -0.9792 0.9792 0.2027 -377.1177 341.4099)" class="st2" cx="21.1" cy="402.3" rx="0.8" ry="0.8"/>
</g>
<g id="g82" transform="translate(0,0.56665421)">
	<path id="path84" inkscape:connector-curvature="0" class="st21" d="M12.7,432.9c-0.7,1.7-2.1,3-3.9,3.4c-4.5,1.1-6.6-0.5-6.6-0.5
		c-0.3,0-0.6,0.3-0.5,0.6l0,0c0,0.5,0.3,0.9,0.8,0.9h0.1c0,0,6.4,0.3,8.7,0c1.4,0,2.7-0.3,3.9-1c0.8-0.5,1.5-1.2,2-2
		c1.2-2.2,2.4-2.2,2.3-2.6s-0.2-2.9-3.6-2.7C14.3,429.2,13.1,431.6,12.7,432.9L12.7,432.9z"/>
	<path id="path86" inkscape:connector-curvature="0" class="st21" d="M10.8,433.3C8.7,436.8-1,436,0.1,428.4
		c1.2-8.8,13.5-6.7,14.9-1c0.1,0.2-0.8,0-1.4,1.4c-0.3,0.7-0.7-1.4-2.2-2.7c-2.3-2-8.7-2.6-9.2,2.7c-0.5,4.9,5.6,5.8,7.1,3.6
		c2.8-4.2-2.6-5.7-3.7-4c-1,1.4,0.3,2.8,1.1,2.4c0.4-0.2-0.6-1.6,0.8-1.8c0.9-0.2,1.3,1.4,1,1.9c-1.5,3-5.9,0.4-4.6-2.8
		C5.4,424.1,15.2,426.1,10.8,433.3L10.8,433.3z"/>
	<polygon id="polygon88" class="st21" points="17.1,425.4 17.9,425.6 16.8,429.5 16,429.3 	"/>
	<polygon id="polygon90" class="st21" points="20.8,427.2 21.3,427.7 18.7,430.7 18.1,430.2 	"/>
	<circle id="ellipse92" class="st21" cx="17.6" cy="425.3" r="0.8"/>
	
		<ellipse id="ellipse94" transform="matrix(0.2027 -0.9792 0.9792 0.2027 -401.6653 361.3139)" class="st21" cx="21.1" cy="427.3" rx="0.8" ry="0.8"/>
</g>
<polygon class="st22" points="0,450 3.5,454 7,450 "/>
</svg>
