<svg xmlns="http://www.w3.org/2000/svg" viewBox="0 0 436 170.01"><defs><style>.a{fill:#fff;}</style></defs><title>Untitled-2</title><path class="a" d="M380.33,47.95h11.33A40.33,40.33,0,0,1,432,88.28v65.67a12,12,0,0,1-12,12H352a12,12,0,0,1-12-12V88.28A40.33,40.33,0,0,1,380.33,47.95Z"/><path d="M391.67,44h-4c-2.06-5-4-12.69-2.47-16.64a3.74,3.74,0,0,1,2.28-2.27,68.92,68.92,0,0,1,9.29-2.48c8.2-1.81,16.67-3.69,19.72-10.07C418.12,9,417.76,4.8,415.36,0L408.2,3.58c.85,1.7,1.72,4,1,5.52-1.36,2.86-8.49,4.44-14.22,5.7a75.53,75.53,0,0,0-10.43,2.81,11.73,11.73,0,0,0-6.84,6.77c-2.41,6-.48,14.17,1.38,19.6A44.38,44.38,0,0,0,336,88.28v65.67c0,10,4.86,16.05,13,16.05h71a16.06,16.06,0,0,0,16-16.05V88.28A44.34,44.34,0,0,0,391.67,44Zm0,8A36.33,36.33,0,0,1,428,88.28V113H389V52Zm-11.33,0H381v61H344V88.28A36.33,36.33,0,0,1,380.33,52ZM420,162H349c-1.37,0-5-.05-5-8.05V121h84v32.95A8.05,8.05,0,0,1,420,162Z" transform="translate(0 0)"/><path d="M376,58.87a26.37,26.37,0,0,0-26,26.19V107h26Z" transform="translate(0 0)"/><rect class="a" x="2.47" y="58.79" width="227.37" height="108.74" rx="15.3" ry="15.3"/><path d="M215,170H17.3A17.32,17.32,0,0,1,0,152.71V73.62a17.32,17.32,0,0,1,17.3-17.3H215a17.32,17.32,0,0,1,17.3,17.3v79.09A17.32,17.32,0,0,1,215,170ZM19.3,63.26A12.37,12.37,0,0,0,6.94,75.62v75.09A12.37,12.37,0,0,0,19.3,163.06H213a12.37,12.37,0,0,0,12.36-12.36V75.62A12.37,12.37,0,0,0,213,63.26Z" transform="translate(0 0)"/><path d="M289.09,95.95V111h14.47v6.51H289.09v15.23H282.3V117.55H267.83V111H282.3V95.95Z" transform="translate(0 0)"/><path d="M78.54,122.76,72,142.67H63.51L85,79.37h9.86l21.6,63.3h-8.73L101,122.76Zm20.76-6.39L93.1,98.15C91.69,94,90.75,90.26,89.81,86.6h-.19c-.94,3.76-2,7.61-3.19,11.46l-6.2,18.31Z" transform="translate(0 0)"/><path d="M125.22,76h8.26v66.68h-8.26Z" transform="translate(0 0)"/><path d="M157.33,84.16V97.21h11.83v6.29H157.33V128c0,5.64,1.6,8.83,6.2,8.83a18.37,18.37,0,0,0,4.79-.56l.38,6.2a20.24,20.24,0,0,1-7.33,1.13c-3.85,0-6.95-1.22-8.92-3.48-2.35-2.44-3.19-6.48-3.19-11.83V103.5h-7V97.21h7V86.32Z" transform="translate(0 0)"/></svg>