<?xml version="1.0" encoding="utf-8"?>
<!-- Generator: Adobe Illustrator 19.2.1, SVG Export Plug-In . SVG Version: 6.00 Build 0)  -->
<svg version="1.1"
	 id="svg2" inkscape:version="0.91 r13725" sodipodi:docname="header_button.svg" xmlns:cc="http://creativecommons.org/ns#" xmlns:dc="http://purl.org/dc/elements/1.1/" xmlns:inkscape="http://www.inkscape.org/namespaces/inkscape" xmlns:rdf="http://www.w3.org/1999/02/22-rdf-syntax-ns#" xmlns:sodipodi="http://sodipodi.sourceforge.net/DTD/sodipodi-0.dtd" xmlns:svg="http://www.w3.org/2000/svg"
	 xmlns="http://www.w3.org/2000/svg" xmlns:xlink="http://www.w3.org/1999/xlink" x="0px" y="0px" width="110px" height="259px"
	 viewBox="0 0 110 259" style="enable-background:new 0 0 110 259;" xml:space="preserve">
<style type="text/css">
	.st0{fill:#FFFFFF;}
	.st1{fill:#595759;}
	.st2{fill:#5A585A;}
	.st3{fill:#57575A;}
	.st4{fill:#585759;}
	.st5{fill:#585759;stroke:#010202;stroke-width:2.0105;stroke-miterlimit:10;}
	.st6{fill:#59585A;}
	.st7{fill:#585759;stroke:#010202;stroke-width:2.01;stroke-miterlimit:10;}
</style>
<sodipodi:namedview  bordercolor="#666666" borderopacity="1" fit-margin-bottom="10" gridtolerance="10" guidetolerance="10" id="namedview44" inkscape:current-layer="svg2" inkscape:cx="3.258027" inkscape:cy="31.284367" inkscape:guide-bbox="true" inkscape:pageopacity="0" inkscape:pageshadow="2" inkscape:window-height="957" inkscape:window-maximized="1" inkscape:window-width="1920" inkscape:window-x="0" inkscape:window-y="1" inkscape:zoom="5.1545065" objecttolerance="10" pagecolor="#ffffff" showgrid="false" showguides="true">
	<sodipodi:guide  id="guide4204" orientation="0,1" position="40.07786,160.92715"></sodipodi:guide>
</sodipodi:namedview>
<g id="g6" transform="translate(-9.6,-9.60001)">
	<path id="path8" inkscape:connector-curvature="0" class="st0" d="M17.6,9.6h3v19h-3V9.6z"/>
	<path id="path10" inkscape:connector-curvature="0" class="st0" d="M9.6,17.5h19v3h-19V17.5z"/>
</g>
<path id="path24" inkscape:connector-curvature="0" class="st1" d="M1.2,122.1v14.5c0,1.3,1,2.3,2.2,2.3h9.1c1.2,0,2.2-1,2.2-2.3
	v-14.5L1.2,122.1 M5.5,136.4H3.8v-11.5h1.7V136.4 M9,136.4H7.2v-11.5h1.8v11.5H9z M12.5,136.4h-1.7v-11.5h1.7V136.4"/>
<path id="path26" inkscape:connector-curvature="0" class="st1" d="M0,121.9h16v2.7H0V121.9z"/>
<path id="path28" inkscape:connector-curvature="0" class="st1" d="M6,119l-1.7,1.5h7.3l-1.6-1.5H6z"/>
<path id="path30" inkscape:connector-curvature="0" class="st1" d="M18.1,165.2H2c-1.1,0-2,0.9-2,2v9.9c0,1.1,0.9,2,2,2h16
	c1.1,0,2-0.9,2-2v-9.9C20.1,166,19.2,165.2,18.1,165.2 M10.4,176.2v-2.9H4.6v-2.8h5.7v-3.2l4.9,4.4L10.4,176.2"/>
<path id="path32" inkscape:connector-curvature="0" class="st1" d="M1.9,164h10.5c0,0-0.2-0.9-0.8-1.4s-1.4-0.6-1.4-0.6h-6
	c0,0-0.8,0-1.5,0.6C1.9,163.2,1.9,164,1.9,164"/>
<path id="path34" inkscape:connector-curvature="0" class="st2" d="M9.4,214.2c-1,0.7-2.1,1.1-3.5,1.1c-3.3,0-5.9-2.7-5.9-5.9
	c0-3.3,2.7-5.9,5.9-5.9s5.9,2.7,5.9,5.9c0,1.3-0.4,2.5-1.1,3.5l3.9,3.9c0.4,0.4,0.4,1,0,1.4s-1,0.4-1.4,0L9.4,214.2 M6,213.9
	c2.6,0,4.6-2,4.6-4.6s-2-4.6-4.6-4.6s-4.6,2-4.6,4.6C1.4,211.9,3.5,213.9,6,213.9"/>
<g id="g36" transform="matrix(1.0052632,0,0,1.0408247,0,-877.27357)">
	<path id="path38" inkscape:connector-curvature="0" class="st3" d="M0,1089.9h16.9v1.8H0V1089.9z"/>
	<path id="path40" inkscape:connector-curvature="0" class="st3" d="M0,1085.1h16.9v1.8H0V1085.1z"/>
	<path id="path42" inkscape:connector-curvature="0" class="st3" d="M0,1080.2h16.9v1.8H0V1080.2z"/>
</g>
<path id="path4179" inkscape:connector-curvature="0" class="st3" d="M60.5,244.1l-3.5,3.2V245c0,0-3.7,0.2-5,3.3
	c-0.9,2.1,0.3,4.1,0.3,4.1l-1.3,1.2c0,0-1.9-2.4-0.7-5.7c1.9-4.8,6.7-4.6,6.7-4.6V241L60.5,244.1L60.5,244.1z"/>
<path id="path4181" inkscape:connector-curvature="0" class="st3" d="M53.6,255.9l3.5-3.2v2.3c0,0,3.7-0.2,5-3.3c0.8-2-0.3-4-0.3-4
	l1.2-1.3c0,0,1.9,2.4,0.7,5.7c-1.8,4.8-6.6,4.6-6.6,4.6v2.3L53.6,255.9L53.6,255.9z"/>
<polygon id="polygon3357" class="st3" points="100,253.5 105.9,248 107,249.2 102.4,253.5 107,257.8 105.9,259 "/>
<polygon id="polygon3358" class="st4" points="55,49.5 40,40 40,59 45.8,55.3 "/>
<path id="path59_2_" inkscape:connector-curvature="0" class="st4" d="M56.7,60l3.8-4l1,0.9L56.8,62l-2.3-2.4l1-0.9L56.7,60z"/>
<path id="path3361" inkscape:connector-curvature="0" class="st4" d="M62.2,54.9v8.3H54v-8.3H62.2 M63,54H53v10h10V54L63,54z"/>
<path id="path3363" inkscape:connector-curvature="0" class="st5" d="M56.2,92"/>
<path id="path3365" inkscape:connector-curvature="0" class="st5" d="M49.3,99.8"/>
<rect id="rect3367" x="40" y="80" class="st4" width="4" height="19"/>
<path id="path59" inkscape:connector-curvature="0" class="st4" d="M58.7,100l3.8-4l1,0.9l-4.7,5.1l-2.3-2.4l1-0.9L58.7,100z"/>
<path id="path3370" inkscape:connector-curvature="0" class="st4" d="M64.1,94.9v8.3h-8.2v-8.3H64.1 M65,94H55v10h10V94L65,94z"/>
<rect id="rect3372" x="48" y="80" class="st4" width="4" height="19"/>
<polygon class="st6" points="0,40 0,59 15,49.5 "/>
<g>
	<rect x="14" y="55" class="st6" width="2" height="2"/>
	<rect x="17" y="55" class="st6" width="2" height="2"/>
	<rect x="20" y="55" class="st6" width="2" height="2"/>
	<rect x="14" y="58" class="st6" width="2" height="2"/>
	<rect x="17" y="58" class="st6" width="2" height="2"/>
	<rect x="20" y="58" class="st6" width="2" height="2"/>
	<rect x="14" y="61" class="st6" width="2" height="2"/>
	<rect x="17" y="61" class="st6" width="2" height="2"/>
	<rect x="20" y="61" class="st6" width="2" height="2"/>
</g>
<rect y="80" class="st6" width="4" height="19"/>
<rect x="8" y="80" class="st6" width="4" height="19"/>
<g>
	<rect x="16" y="95" class="st6" width="2" height="2"/>
	<rect x="19" y="95" class="st6" width="2" height="2"/>
	<rect x="22" y="95" class="st6" width="2" height="2"/>
	<rect x="16" y="98" class="st6" width="2" height="2"/>
	<rect x="19" y="98" class="st6" width="2" height="2"/>
	<rect x="22" y="98" class="st6" width="2" height="2"/>
	<rect x="16" y="101" class="st6" width="2" height="2"/>
	<rect x="19" y="101" class="st6" width="2" height="2"/>
	<rect x="22" y="101" class="st6" width="2" height="2"/>
</g>
<path class="st1" d="M41.2,122.1v14.5c0,1.2,0.9,2.3,2.2,2.3l0,0h9.1c1.2,0,2.2-1,2.2-2.3l0,0v-14.5L41.2,122.1 M45.5,136.4h-1.7
	v-11.5h1.7V136.4 M49,136.4h-1.7v-11.5h1.8L49,136.4L49,136.4z M52.5,136.4h-1.7v-11.5h1.7V136.4"/>
<path class="st1" d="M40,121.9h16v2.7H40V121.9z"/>
<path class="st1" d="M46,119l-1.7,1.5h7.3l-1.6-1.5H46z"/>
<path class="st7" d="M59.1,128.9"/>
<path class="st4" d="M61.7,140l3.8-4l1,0.9l-4.7,5.1l-2.3-2.4l1-0.9L61.7,140z"/>
<path class="st4" d="M67.1,134.9v8.3h-8.2v-8.3H67.1 M68,134H58v10h10V134L68,134z"/>
<path class="st1" d="M58.1,165.2H42c-1.1,0-2,0.9-2,2v9.9c0,1.1,0.9,2,2,2h16c1.1,0,2-0.9,2-2v-9.9c0.1-1-0.6-1.9-1.6-2
	C58.3,165.2,58.2,165.2,58.1,165.2 M50.4,176.2v-2.9h-5.8v-2.8h5.7v-3.2l4.9,4.4L50.4,176.2"/>
<path class="st1" d="M41.9,164h10.5c-0.1-0.5-0.4-1-0.8-1.4c-0.4-0.3-0.9-0.5-1.4-0.6h-6c-0.6,0-1.1,0.2-1.5,0.6
	C42.2,162.9,41.9,163.4,41.9,164"/>
<path class="st7" d="M64.2,169.5"/>
<path class="st4" d="M66.7,180l3.8-4l1,0.9l-4.7,5.1l-2.3-2.4l1-0.9L66.7,180z"/>
<path class="st4" d="M72.1,174.9v8.3h-8.2v-8.3H72.1 M73,174H63v10h10V174L73,174z"/>
</svg>
